<svg width="62" height="62" viewBox="0 0 62 62" fill="none" xmlns="http://www.w3.org/2000/svg">
<path d="M57.7336 32.0915C58.6504 31.167 59.4338 30.3787 60.2123 29.5903C60.5543 29.2424 60.9156 28.9626 61.4371 29.1889C61.9536 29.4127 61.9997 29.8628 61.9997 30.3543C61.9949 40.476 61.9973 50.5976 61.9949 60.7193C61.9949 61.7266 61.7208 61.9991 60.6949 61.9991C50.6251 61.9991 40.5578 61.9991 30.488 61.9918C30.1776 61.9918 29.821 61.9553 29.5688 61.7996C29.0377 61.4711 29.0692 60.8458 29.61 60.2959C31.1016 58.7874 32.6028 57.2862 34.1041 55.7874C34.2617 55.6317 34.4533 55.5125 34.6304 55.3762C34.6037 55.313 34.5794 55.2521 34.5528 55.1889C34.3272 55.1889 34.1017 55.1889 33.8761 55.1889C24.9777 55.1889 16.0794 55.184 7.18099 55.1913C4.32158 55.1937 2.18733 53.9772 0.800066 51.4687C0.273779 50.5149 0.00942289 49.4711 0.00699761 48.3908C-0.00027825 35.5173 -0.00512882 22.6414 0.00942289 9.76794C0.0142735 5.97476 3.08226 2.81417 6.80992 2.69009C7.76549 2.65846 8.0832 2.95529 8.08562 3.93339C8.0929 6.60493 8.08805 9.27646 8.08805 11.9504C8.08805 12.1305 8.08805 12.3105 8.08805 12.5441H36.5027C36.5512 12.4784 36.67 12.2594 36.8398 12.0891C40.4729 8.43461 44.1132 4.78498 47.7512 1.13534C49.2621 -0.378041 50.7609 -0.378041 52.2719 1.13291C53.0868 1.94799 53.9065 2.75578 54.7093 3.58303C55.9268 4.83607 55.9341 6.42731 54.7093 7.68279C53.2978 9.12804 51.862 10.5514 50.4335 11.9796C50.2783 12.1353 50.0964 12.2619 49.9267 12.403C49.9461 12.4565 49.9679 12.51 49.9873 12.5636C50.191 12.5757 50.3947 12.5952 50.5985 12.5976C52.5144 12.6001 54.4328 12.5976 56.3488 12.6001C57.4572 12.6001 57.7361 12.8872 57.7361 14.0113C57.7361 19.7606 57.7361 25.5076 57.7361 31.257C57.7361 31.4735 57.7361 31.6901 57.7361 32.0964L57.7336 32.0915ZM6.25938 4.62926C6.03383 4.65846 5.87619 4.66332 5.72825 4.70225C3.40967 5.29836 1.82354 7.45408 1.82111 10.0575C1.81384 21.111 1.81869 32.167 1.81869 43.2205C1.81869 43.3713 1.81869 43.5222 1.81869 43.819C3.11621 42.5027 4.54471 41.7387 6.25938 41.4954C6.25938 41.2035 6.25938 40.9845 6.25938 40.7655C6.25938 39.1451 6.25211 37.5271 6.26423 35.9066C6.26908 35.2278 6.61347 34.8288 7.14461 34.819C7.6612 34.8093 8.06865 35.2278 8.07592 35.8799C8.09532 37.9845 8.09775 40.0915 8.07592 42.1962C8.06865 42.9188 7.7 43.2254 6.96514 43.2813C6.6062 43.3081 6.23998 43.3373 5.89074 43.4224C3.07983 44.0964 1.04259 47.2132 2.17035 50.128C2.93189 52.0988 4.80179 53.3689 7.16159 53.3689C16.7875 53.3714 26.4135 53.3689 36.0395 53.3689H36.5415C37.5965 52.3032 38.6466 51.24 39.7016 50.1791C39.886 49.9918 40.063 49.7898 40.2716 49.6366C40.6766 49.3373 41.1132 49.3227 41.4794 49.6877C41.8383 50.0477 41.8674 50.476 41.5376 50.8896C41.4115 51.0477 41.2684 51.1913 41.1277 51.3349C38.375 54.0988 35.6199 56.8604 32.8672 59.6244C32.7192 59.7728 32.581 59.9334 32.4064 60.1256H60.1347V55.8726C60.0498 55.8482 60.011 55.8288 59.9746 55.8263C59.5502 55.8215 59.1282 55.8239 58.7038 55.8142C57.9932 55.7996 57.6415 55.5149 57.6245 54.9504C57.6051 54.3665 57.9859 54.0186 58.6989 53.9918C59.1767 53.9748 59.6545 53.9894 60.1565 53.9894V51.2667C59.6302 51.2667 59.1306 51.2911 58.6334 51.2619C57.9495 51.2229 57.6051 50.8726 57.6269 50.3008C57.6463 49.7509 57.981 49.4638 58.6528 49.4419C59.15 49.4273 59.6472 49.4395 60.142 49.4395V46.6804C59.6375 46.6804 59.1743 46.6852 58.7135 46.6804C58.0126 46.6682 57.6124 46.3227 57.6245 45.746C57.6342 45.1937 58.0198 44.8701 58.6941 44.8604C59.1718 44.8531 59.652 44.8604 60.1565 44.8604V42.0867C59.669 42.0867 59.2106 42.0915 58.7523 42.0867C57.998 42.077 57.6366 41.7923 57.6245 41.2083C57.6148 40.6098 58.0101 40.2765 58.7717 40.2619C59.2276 40.2521 59.686 40.2619 60.1323 40.2619V32.2862C59.9795 32.4322 59.8897 32.5125 59.8048 32.5976C57.251 35.1597 54.6972 37.7241 52.1434 40.2862C49.5459 42.892 46.9508 45.4979 44.3533 48.1013C43.8562 48.5976 43.3008 48.6658 42.9176 48.2959C42.4932 47.8872 42.5465 47.3543 43.0655 46.8069C43.148 46.7193 43.2377 46.6341 43.3226 46.549C47.3607 42.4979 51.3988 38.4468 55.4369 34.3957C55.6067 34.2254 55.7667 34.0477 55.8686 33.9383V14.4638H47.8749C47.7803 14.583 47.6663 14.7558 47.5232 14.8969C41.945 20.4954 36.3402 26.0672 30.8057 31.7096C29.6513 32.8847 28.4192 33.7509 26.8355 34.1864C25.7854 34.476 24.774 34.9091 23.7433 35.2765C23.7505 35.313 23.7602 35.3495 23.7675 35.3859H24.4151C29.9447 35.3859 35.4744 35.3859 41.0016 35.3859C41.9208 35.3859 42.3743 35.6925 42.3719 36.3081C42.3719 36.9164 41.9232 37.2108 40.9967 37.2108C32.9036 37.2108 24.8128 37.2108 16.7196 37.2108C16.5377 37.2108 16.3534 37.2254 16.1764 37.1986C15.7277 37.1329 15.4391 36.875 15.3857 36.4151C15.3275 35.9237 15.5628 35.5903 16.026 35.4492C16.2322 35.386 16.4626 35.3908 16.6833 35.3908C17.5442 35.386 18.4076 35.3884 19.2686 35.3884C19.3244 35.2375 19.3608 35.1451 19.3923 35.0502C20.3163 32.4249 21.2331 29.7971 22.179 27.1816C22.3099 26.8166 22.5379 26.4565 22.8071 26.1767C24.0295 24.9115 25.2785 23.6755 26.5251 22.4346C26.6803 22.2789 26.8549 22.0502 27.0368 22.0332C27.3666 22.004 27.7668 22.0137 28.0263 22.1816C28.3659 22.3981 28.4507 22.8215 28.2203 23.2083C28.0991 23.4127 27.9293 23.5928 27.7595 23.7655C26.6682 24.8653 25.5719 25.9602 24.546 26.9894C25.9576 28.4078 27.3327 29.7898 28.6302 31.094C34.8487 24.858 41.1083 18.5806 47.3364 12.3349C46.0098 11.004 44.642 9.63169 43.1844 8.1694C43.0679 8.32269 42.954 8.51977 42.7963 8.67549C38.8892 12.6025 34.9796 16.5246 31.0676 20.4443C30.8979 20.6147 30.7208 20.7898 30.5171 20.9115C30.1363 21.1426 29.7604 21.0404 29.4694 20.7436C29.1759 20.4443 29.0983 20.0648 29.3336 19.6877C29.4475 19.5027 29.61 19.3397 29.7653 19.184C31.1622 17.7777 32.5616 16.3762 33.9586 14.9723C34.0944 14.8361 34.2156 14.6901 34.4072 14.4784H8.08562C8.08562 14.7606 8.08562 14.9991 8.08562 15.2375C8.08562 20.6633 8.08562 26.0891 8.08077 31.5149C8.08077 31.7947 8.06622 32.0867 7.99104 32.3543C7.86492 32.8044 7.52781 32.9991 7.067 32.9577C6.63288 32.9188 6.3661 32.6658 6.29576 32.24C6.25453 31.9821 6.25938 31.7168 6.25938 31.4541C6.25938 22.7898 6.25938 14.1232 6.25938 5.45894V4.63412V4.62926ZM51.7796 8.04288C52.3301 7.48814 52.8952 6.94069 53.436 6.37378C53.892 5.89446 53.9211 5.39082 53.4748 4.9261C52.5678 3.98206 51.6413 3.05505 50.7003 2.14507C50.305 1.76065 49.8127 1.71198 49.3955 2.09641C48.7649 2.67792 48.1804 3.31052 47.6226 3.87257C49.0196 5.27403 50.3802 6.63899 51.782 8.04532L51.7796 8.04288ZM44.7099 6.87257C46.0462 8.23023 47.4141 9.61709 48.7189 10.9431C49.2524 10.437 49.803 9.91393 50.3123 9.43218C48.9444 8.05748 47.5838 6.68765 46.2499 5.34702C45.7406 5.85067 45.2022 6.38595 44.7099 6.87257ZM23.5007 28.8799C23.2194 29.6804 22.9259 30.5149 22.6786 31.2132C23.3261 31.8604 23.9033 32.4395 24.5169 33.0526C25.2469 32.7898 26.0594 32.5003 26.8234 32.2278C25.7247 31.1207 24.6333 30.021 23.4983 28.8799H23.5007Z" fill="#FF5F14"/>
</svg>
