<svg width="322" height="93" viewBox="0 0 322 93" fill="none" xmlns="http://www.w3.org/2000/svg">
<g clip-path="url(#clip0_1_24)">
<path d="M90.5308 17.8891H90.5374H90.5143V36.8437H90.4219L71.1045 10.3548H66.6908V42.5472H70.7384V16.055H70.8307L90.0987 42.5472H94.5157V17.8891H94.1231" fill="white"/>
<path d="M0.0527799 9.69171H4.60505V43.9162H0.0527799C0.0362862 43.075 0.0230912 42.5373 0.0230912 42.5373L1.24033 40.1787L0.0164937 37.7772L1.23373 35.2438L0.0164937 33.0039L1.24033 30.4969L0.0164937 27.9602L1.24033 25.4201L0.0164937 22.8834L1.24692 20.571L0.0164937 18.595C0.0164937 18.595 0.442032 17.8891 1.24033 16.563L0 14.1912L1.21724 11.9316C1.21724 11.9316 0.81479 11.1564 0.0527799 9.69501V9.69171Z" fill="white"/>
<path d="M19.9541 9.69171H24.0115C24.0115 9.69171 25.7203 25.5554 9.05833 26.8056C9.05833 26.8056 25.1793 27.9733 24.0115 43.9195H19.964C19.964 43.9195 19.6836 31.8329 7.09888 31.2193V22.6261C7.09888 22.6261 19.9541 23.4706 19.9541 9.69501V9.69171Z" fill="white"/>
<path d="M239.571 38.5128L239.548 8.84064H235.454C235.375 28.1284 235.461 39.2946 235.547 40.2183C235.6 40.7989 235.774 41.2475 235.774 41.2475C235.824 41.3333 236.091 41.7687 236.662 42.1019C237.183 42.4086 237.717 42.5274 238.842 42.5538C239.888 42.5769 240.379 42.5538 240.861 42.5538C241.91 42.5538 250.889 42.5472 255.877 42.5538V38.5161H239.571V38.5128ZM238.192 35.544C238.192 35.953 237.859 36.2862 237.45 36.2862C237.041 36.2862 236.708 35.953 236.708 35.544V24.0643C236.708 23.6553 237.041 23.3221 237.45 23.3221C237.859 23.3221 238.192 23.6553 238.192 24.0643V35.544ZM237.289 21.3396C236.804 21.3396 236.408 20.947 236.408 20.4588C236.408 19.9706 236.8 19.578 237.289 19.578C237.777 19.578 238.169 19.9706 238.169 20.4588C238.169 20.947 237.777 21.3396 237.289 21.3396ZM238.166 19.6638C237.909 19.6638 237.701 19.456 237.701 19.1987C237.701 18.9414 237.909 18.7336 238.166 18.7336C238.423 18.7336 238.631 18.9414 238.631 19.1987C238.631 19.456 238.423 19.6638 238.166 19.6638ZM238.697 17.2326C238.397 16.8368 238.314 16.7609 238.149 16.7675C237.816 16.7807 237.665 17.1502 237.322 17.0908C237.17 17.0644 237.087 16.972 236.86 16.9753C236.705 16.9753 236.616 17.0215 236.586 17.038C236.451 17.1106 236.385 17.2227 236.358 17.2755C236.322 17.2755 236.282 17.2788 236.246 17.2821C236.263 15.072 236.279 12.8618 236.296 10.6483C237.14 10.6483 237.853 10.6483 238.7 10.6451C238.723 12.3109 238.71 13.9966 238.704 15.6987C238.704 16.2133 238.697 16.7246 238.694 17.2359L238.697 17.2326Z" fill="white"/>
<path d="M239.545 8.07861H235.418C235.207 8.07861 235.035 8.24993 235.035 8.46127V8.59981C235.035 8.81115 235.207 8.98247 235.418 8.98247H239.545C239.756 8.98247 239.927 8.81115 239.927 8.59981V8.46127C239.927 8.24993 239.756 8.07861 239.545 8.07861Z" fill="white"/>
<path d="M239.796 3.37132C240.726 3.37132 241.481 2.61662 241.481 1.68566C241.481 0.754695 240.726 0 239.796 0C238.865 0 238.11 0.754695 238.11 1.68566C238.11 2.61662 238.865 3.37132 239.796 3.37132Z" fill="white"/>
<path d="M236.276 5.3176C236.813 5.3176 237.249 4.88191 237.249 4.34447C237.249 3.80702 236.813 3.37134 236.276 3.37134C235.738 3.37134 235.303 3.80702 235.303 4.34447C235.303 4.88191 235.738 5.3176 236.276 5.3176Z" fill="white"/>
<path d="M238.737 6.91831C239.113 6.91831 239.417 6.61388 239.417 6.23836C239.417 5.86283 239.113 5.55841 238.737 5.55841C238.362 5.55841 238.057 5.86283 238.057 6.23836C238.057 6.61388 238.362 6.91831 238.737 6.91831Z" fill="white"/>
<path d="M129.017 29.692C128.193 28.4814 126.903 27.4324 125.154 26.5417C123.409 25.6543 121.15 24.7604 118.267 24.0841C115.506 23.4112 113.342 22.9329 111.887 22.4249C110.429 21.9202 109.396 21.3528 108.783 20.7227C108.169 20.096 107.862 19.3207 107.862 18.4004C107.862 17.48 108.192 16.5861 108.852 15.8043C108.852 15.8043 109.165 15.4249 109.555 15.1148C110.452 14.3957 112.484 13.7063 115.476 13.6634C117.059 13.6403 118.441 13.5413 120.068 14.244C121.12 14.6992 121.809 14.8015 122.575 15.5866L125.451 13.0333C124.396 12.014 123.489 11.5159 122.03 10.8826C120.101 10.0381 117.97 9.61584 115.638 9.61584C113.305 9.61584 111.329 10.0084 109.522 10.7902C107.711 11.572 106.295 12.6441 105.266 14.0098C104.24 15.3755 103.726 16.883 103.726 18.5389C103.726 20.0102 104.132 21.2835 104.946 22.3556C105.758 23.431 106.612 24.3546 108.39 25.1826C110.168 26.0106 112.913 26.9672 115.855 27.6732C118.491 28.2867 120.605 28.7222 122.077 29.306C123.548 29.8866 124.6 30.5464 125.227 31.282C125.857 32.0176 126.17 32.9544 126.17 34.0892C126.17 35.224 125.794 36.1641 125.042 37.0086C124.293 37.8531 123.333 38.2357 122.06 38.6811C120.787 39.1231 119.289 39.1462 117.666 39.1462C114.325 39.1462 111.729 38.8625 109.888 37.3748C108.05 35.8903 106.916 33.6274 106.487 30.5925L102.532 31.1896C102.927 34.9931 104.455 37.9454 107.107 40.0434C109.759 42.1447 113.262 43.1937 117.617 43.1937C119.975 43.1937 122.123 42.8111 124.056 42.0458C125.986 41.2772 127.503 40.1985 128.608 38.8031C129.713 37.4078 130.264 35.8046 130.264 33.9969C130.264 32.3409 129.849 30.9059 129.021 29.6953L129.017 29.692ZM125.201 20.4258L129.11 19.644C128.773 17.6813 128.394 16.6257 127.167 15.1083C127.147 15.0852 127.127 15.0588 127.104 15.0357L124.115 17.4669C124.821 18.4664 124.96 19.1063 125.201 20.4258Z" fill="white"/>
<path d="M88.4459 13.162C88.5812 13.1521 89.2508 13.1158 89.838 13.6106C90.3856 14.0725 90.4878 15.3326 90.5076 15.4777H94.509C94.4892 15.26 94.4661 13.9867 94.8785 13.5414C95.2116 13.1818 95.6504 13.1257 96.0231 13.0828C97.0886 12.9575 97.9694 13.3995 98.4048 13.6634C98.6621 13.5447 98.9227 13.4292 99.18 13.3105C98.1442 12.2845 97.1183 11.6578 96.3959 11.285C94.1692 10.1404 92.1141 10.0282 91.5665 10.0348C91.4709 10.0348 90.4153 10.048 90.4153 10.048C90.4021 10.1701 90.3163 10.7968 89.7489 11.2487C89.2013 11.6875 88.5911 11.6479 88.4624 11.638C88.4558 12.146 88.4492 12.654 88.4459 13.162Z" fill="white"/>
<path d="M87.034 10.9617H86.0081C85.7276 10.9617 85.5001 11.1892 85.5001 11.4697V13.5216C85.5001 13.8021 85.7276 14.0296 86.0081 14.0296H87.034C87.3146 14.0296 87.542 13.8021 87.542 13.5216V11.4697C87.542 11.1892 87.3146 10.9617 87.034 10.9617Z" fill="white"/>
<path d="M124.161 10.9716L120.345 14.3198C119.83 14.7718 119.797 15.5635 120.275 16.055C120.711 16.5003 121.417 16.5399 121.895 16.144L125.821 12.8981C126.375 12.4396 126.401 11.6017 125.883 11.1102L125.774 11.0079C125.326 10.5824 124.627 10.5659 124.161 10.9749V10.9716Z" fill="white"/>
<path d="M105.266 29.6425L100.364 30.9653C99.7013 31.1435 99.3252 31.8395 99.5363 32.4926C99.731 33.0864 100.345 33.4295 100.952 33.2843L105.906 32.1034C106.606 31.9385 106.998 31.1995 106.751 30.5233L106.698 30.3847C106.484 29.8042 105.86 29.4842 105.263 29.6425H105.266Z" fill="white"/>
<path d="M128.839 17.4933L124.267 18.5324C123.65 18.6742 123.277 19.301 123.449 19.9113C123.604 20.4654 124.161 20.8052 124.726 20.6964L129.337 19.7859C129.987 19.6572 130.38 18.9909 130.175 18.3608L130.132 18.2289C129.954 17.6846 129.393 17.3646 128.836 17.4933H128.839Z" fill="white"/>
<path d="M204.011 35.8343H205.36L206.9 32.3376H204.011V35.8343ZM216.797 10.3548H212.568L198.08 42.5472H202.718L205.677 35.8343L207.217 32.3376L207.735 31.16L214.682 15.0885L222.184 32.5191L223.104 34.6203L223.714 36.0157L226.65 42.7287L231.285 42.5472L216.797 10.3548Z" fill="white"/>
<path d="M213.211 30.5167H210.757C210.241 30.5167 209.823 30.9347 209.823 31.4503V33.9045C209.823 34.4201 210.241 34.8381 210.757 34.8381H213.211C213.727 34.8381 214.144 34.4201 214.144 33.9045V31.4503C214.144 30.9347 213.727 30.5167 213.211 30.5167Z" fill="white"/>
<path d="M218.591 30.5167H216.137C215.621 30.5167 215.203 30.9347 215.203 31.4503V33.9045C215.203 34.4201 215.621 34.8381 216.137 34.8381H218.591C219.107 34.8381 219.525 34.4201 219.525 33.9045V31.4503C219.525 30.9347 219.107 30.5167 218.591 30.5167Z" fill="white"/>
<path d="M213.211 35.897H210.757C210.241 35.897 209.823 36.3149 209.823 36.8305V39.2848C209.823 39.8004 210.241 40.2183 210.757 40.2183H213.211C213.727 40.2183 214.144 39.8004 214.144 39.2848V36.8305C214.144 36.3149 213.727 35.897 213.211 35.897Z" fill="white"/>
<path d="M218.591 35.897H216.137C215.621 35.897 215.203 36.3149 215.203 36.8305V39.2848C215.203 39.8004 215.621 40.2183 216.137 40.2183H218.591C219.107 40.2183 219.525 39.8004 219.525 39.2848V36.8305C219.525 36.3149 219.107 35.897 218.591 35.897Z" fill="white"/>
<path d="M286.496 42.4251C287.571 41.4751 287.149 40.4393 286.803 39.4826C286.4 38.3676 285.895 37.2857 285.381 36.2169C285.279 36.0057 284.929 35.788 284.695 35.788C278.886 35.7649 273.077 35.7649 267.267 35.788C267.037 35.788 266.7 36.0123 266.594 36.2235C266.159 37.0943 265.79 38.0015 265.397 38.8987C264.902 40.0368 265.107 41.0396 265.981 41.9171C266.103 42.0391 266.205 42.1843 266.43 42.4515H263.365C263.062 42.4515 262.755 42.4515 262.451 42.4515C260.947 42.4515 259.816 41.3233 260.396 39.9049C261.356 37.5562 262.709 35.2536 263.741 32.9346C265.417 29.1707 267.093 25.4102 268.778 21.6496C270.388 18.0573 272.004 14.4682 273.644 10.8891C273.74 10.678 274.063 10.4504 274.287 10.4438C275.432 10.3976 276.583 10.3943 277.728 10.4438C277.975 10.4537 278.325 10.711 278.43 10.9452C280.007 14.4221 281.502 17.9715 283.055 21.4616C285.173 26.2217 287.344 30.9257 289.451 35.6924C290.131 37.2263 290.527 38.7635 291.134 40.3238C291.513 41.2936 290.943 42.303 289.907 42.3954C288.683 42.5043 287.726 42.4218 286.493 42.4218L286.496 42.4251ZM283.227 32.1891C283.501 32.1891 283.665 31.8889 283.524 31.6547C282.554 30.068 281.841 28.9101 281.439 28.257C280.248 26.3239 279.674 25.4003 279.149 23.9554C278.826 23.0615 278.641 22.2896 278.533 21.7585C278.529 21.7387 278.526 21.7222 278.526 21.7024C278.516 21.4451 278.44 19.4098 278.42 18.9281C278.42 18.8622 278.434 18.7995 278.467 18.7401C278.543 18.6049 278.698 18.3179 278.843 17.9418C278.846 17.9319 278.853 17.9187 278.856 17.9088C279.117 17.2293 278.731 16.6553 278.005 16.6388C276.501 16.6025 274.993 16.6058 273.489 16.6454C273.225 16.652 272.836 16.8961 272.743 17.127C272.654 17.3481 272.865 17.6977 272.968 17.9814C273.067 18.2486 273.301 18.5059 273.298 18.7665C273.288 19.7495 273.225 20.7293 273.143 21.709C273.073 22.4941 272.687 23.3089 272.364 23.9851C271.51 25.7631 271.041 26.8781 270.088 28.61C269.646 29.4116 268.904 30.6717 268.346 31.6712C268.217 31.9054 268.386 32.1924 268.653 32.1924H283.227V32.1891ZM276.606 14.2868C277.187 14.2934 277.642 13.8745 277.665 13.3071C277.685 12.776 277.121 12.202 276.596 12.2185C276.118 12.235 275.564 12.8057 275.56 13.284C275.56 13.825 276.035 14.2802 276.606 14.2868ZM274.855 14.3858C274.561 14.7849 274.231 15.0356 274.251 15.2599C274.271 15.4843 274.63 15.8438 274.845 15.8471C275.056 15.8471 275.415 15.4909 275.438 15.2632C275.462 15.0422 275.138 14.7849 274.855 14.3858Z" fill="white"/>
<path d="M277.701 3.83643C278.737 3.83643 279.572 4.66441 279.565 5.67713C279.559 6.68984 278.694 7.53762 277.682 7.52772C276.669 7.51453 275.791 6.64366 275.805 5.66393C275.818 4.64792 276.666 3.83313 277.701 3.83313V3.83643Z" fill="white"/>
<path d="M274.558 8.38537C273.994 8.38537 273.644 8.039 273.65 7.47822C273.654 6.96031 274.076 6.52818 274.577 6.57766C275.102 6.62714 275.432 6.93722 275.481 7.47162C275.527 7.96973 275.085 8.38867 274.558 8.38867V8.38537Z" fill="white"/>
<path d="M59.2752 23.3122L61.7657 21.9202L58.0249 15.2369L55.5179 16.6389L49.3228 13.063V10.0348H41.6632V12.5946L34.6566 16.6389L32.1496 15.2369L28.4088 21.9202L30.8994 23.3122V30.4177L28.4088 31.8098L32.1496 38.493L34.4158 37.2263L41.6632 41.4091V43.969H49.3228V40.9407L55.7587 37.223L58.0249 38.4897L61.7657 31.8065L59.2752 30.4144V23.3089V23.3122ZM45.8394 37.5133C45.4204 37.543 40.469 37.8201 37.068 33.8583C34.4422 30.8037 34.5148 27.2872 34.5379 26.611C34.6764 22.989 36.6557 20.6271 37.2461 19.9739C37.6882 19.4857 40.4954 16.4706 45.084 16.4706C49.3492 16.4706 52.0476 19.07 52.5226 19.5418C52.9449 19.9607 55.7719 22.8801 55.6036 27.3961C55.475 30.8499 53.6673 33.1491 53.123 33.7923C52.6942 34.3003 50.164 37.1999 45.8394 37.5133Z" fill="white"/>
<path d="M146.718 29.3127V32.0506L150.766 30.144V27.406L146.718 29.3127ZM146.718 21.4881V24.226L150.766 22.3193V19.5847L146.718 21.4881ZM134.622 10.3548V14.4024H146.718V16.5168L150.766 14.6102V14.4024H162.908V10.3548H134.622ZM146.718 20.3137L150.766 18.407V15.6724L146.718 17.5757V20.3137ZM146.718 25.4004V28.1383L150.766 26.2316V23.497L146.718 25.4004ZM146.718 33.2217V35.9596L150.766 34.053V31.3183L146.718 33.2217ZM146.718 37.134V38.4766L148.631 43.4148L150.766 38.4766V35.2306L146.718 37.134Z" fill="white"/>
<path d="M319.75 28.3593C318.83 27.0563 317.586 26.07 316.023 25.3938V25.3014C317.25 24.6581 318.21 23.7774 318.899 22.6591C319.589 21.5375 319.932 20.2114 319.932 18.6775C319.932 17.0249 319.543 15.5668 318.761 14.31C317.979 13.0532 316.881 12.08 315.472 11.3906C314.06 10.7012 312.421 10.3548 310.55 10.3548H303.016V14.0329H309.63C311.685 14.0329 313.242 14.4485 314.298 15.2765C315.357 16.1045 315.888 17.2855 315.888 18.8161C315.888 20.5347 315.373 21.8212 314.344 22.6789C313.318 23.5399 311.748 23.9687 309.63 23.9687H303.016V27.4159H309.171C311.992 27.4159 314.014 27.8612 315.241 28.7519C316.468 29.6425 317.082 31.0808 317.082 33.0732C317.082 35.0657 316.445 36.5699 315.172 37.4903C313.902 38.4106 311.87 38.8691 309.079 38.8691H303.016V42.5505H309.815C313.496 42.5505 316.3 41.7357 318.233 40.1128C320.163 38.4865 321.129 36.1246 321.129 33.0271C321.129 31.2193 320.671 29.6623 319.75 28.3593ZM296.699 42.5505H299.348C299.72 42.5505 300.024 42.247 300.024 41.8743V23.9687H296.023V41.8743C296.023 42.247 296.326 42.5505 296.699 42.5505Z" fill="white"/>
<path d="M300.031 26.4394V17.5889C300.031 17.5889 302.03 16.8896 302.03 14.1747C302.03 11.4598 300.031 10.4108 300.031 10.4108V14.0889L297.959 15.2699L296.029 14.1318V10.4108C296.029 10.4108 294.02 11.5918 294.02 14.2638C294.02 16.9357 296.029 17.5889 296.029 17.5889V26.4394H300.031Z" fill="white"/>
<path d="M185.957 29.4809C188.708 29.2797 190.918 28.455 192.581 27.0036C194.514 25.3179 195.477 22.956 195.477 19.9212C195.477 17.9584 195.041 16.2563 194.167 14.8147C193.293 13.3732 192.043 12.2714 190.42 11.5028C188.794 10.7375 186.831 10.3515 184.532 10.3515H168.803V11.1498H172.814V12.1163H168.803V14.1088H171.492V15.0753H168.803V17.0677H170.585V18.0343H168.803V20.0267H171.492V20.9932H168.803V22.9857H170.585V23.9522H168.803V25.9381H170.149V26.9046H168.803V28.9333H171.492V29.8999H168.803V31.8923H170.585V32.8588H168.803V34.8513H171.492V35.8178H168.803V37.8498H170.149V38.8164H168.803V40.8484H171.492V41.8149H168.803V42.534H172.851V29.5172H181.451L189.638 42.534H194.329L185.957 29.5172V29.4677V29.4809ZM172.851 25.8523V14.0329H184.212C186.633 14.0329 188.444 14.531 189.638 15.5272C190.832 16.5234 191.433 17.9881 191.433 19.9212C191.433 21.8542 190.836 23.3617 189.638 24.358C188.444 25.3542 186.663 25.8523 184.304 25.8523H172.851Z" fill="white"/>
<path d="M39.8851 54.9901C39.8851 53.4364 41.1288 52.1927 42.6825 52.1927C44.2362 52.1927 45.4369 53.4364 45.4369 54.9901C45.4369 56.5438 44.1504 57.7445 42.6825 57.7445C41.1288 57.7445 39.8851 56.5438 39.8851 54.9901ZM40.6405 60.588H44.7706V91.6787H40.6405V60.588Z" fill="white"/>
<path d="M71.6421 60.588H75.7722V91.6787H72.4404L56.4514 68.4489V91.6787H52.3214V60.588H55.6531L71.6421 83.7749V60.588Z" fill="white"/>
<path d="M95.4492 60.588C99.6683 60.588 103.178 62.0988 105.975 65.1172C108.773 68.0927 110.195 71.7806 110.195 76.1317C110.195 80.4827 108.773 84.1707 105.975 87.1924C103.178 90.1678 99.6683 91.6787 95.4492 91.6787H83.323V60.588H95.4492ZM95.4492 87.7697C98.6028 87.7697 101.222 86.658 103.221 84.4379C105.22 82.2179 106.243 79.4634 106.243 76.1317C106.243 72.8 105.22 70.0455 103.221 67.8255C101.222 65.6054 98.6028 64.4937 95.4492 64.4937H87.453V87.7664H95.4492V87.7697Z" fill="white"/>
<path d="M115.482 60.588H119.612V81.0633C119.612 85.4605 122.321 88.215 127.163 88.215C132.006 88.215 134.714 85.4605 134.714 81.0633V60.588H138.801V81.2414C138.801 84.5732 137.736 87.2814 135.559 89.2805C133.381 91.2795 130.584 92.2559 127.163 92.2559C123.742 92.2559 120.899 91.2795 118.725 89.2805C116.548 87.2814 115.482 84.5732 115.482 81.2414V60.588Z" fill="white"/>
<path d="M144.264 84.6161L147.817 82.5741C149.017 86.3479 151.815 88.215 156.123 88.215C160.431 88.215 162.697 86.305 162.697 83.4186C162.697 81.954 162.12 80.8423 161.008 80.0869C159.897 79.3315 157.987 78.5761 155.367 77.7316L152.392 76.7552C151.726 76.488 150.838 76.0888 149.816 75.6006C148.793 75.0662 148.038 74.5351 147.549 74.0007C146.527 72.889 145.597 71.0681 145.597 68.8052C145.597 66.0969 146.53 63.9626 148.44 62.4089C150.35 60.809 152.659 60.0107 155.367 60.0107C160.299 60.0107 164.073 62.719 165.894 66.8062L162.43 68.8052C161.097 65.6087 158.742 64.0088 155.367 64.0088C151.993 64.0088 149.727 65.7868 149.727 68.6271C149.727 70.0026 150.215 71.0252 151.191 71.7378C152.168 72.447 153.857 73.2024 156.255 73.9578L158.076 74.5351C158.432 74.6671 158.963 74.8452 159.719 75.1586C161.272 75.7358 161.628 75.9569 162.829 76.6232C164.073 77.2896 164.472 77.7778 165.227 78.6651C166.339 79.7768 166.781 81.3734 166.781 83.3296C166.781 86.0378 165.805 88.215 163.806 89.8578C161.807 91.4577 159.23 92.256 156.034 92.256C150.215 92.256 145.907 89.3696 144.264 84.6161Z" fill="white"/>
<path d="M191.344 60.588V64.497H182.15V91.6787H178.063V64.497H168.912V60.588H191.344Z" fill="white"/>
<path d="M214.751 91.6787L207.778 79.7768H200.448V91.6787H196.318V60.588H208.754C211.42 60.588 213.686 61.5216 215.596 63.4315C217.506 65.2986 218.439 67.5616 218.439 70.2269C218.439 72.226 217.816 74.0898 216.619 75.7358C215.418 77.3786 213.91 78.5794 212 79.2457L219.33 91.682H214.755L214.751 91.6787ZM200.451 64.4508V76.0426H208.758C210.311 76.0426 211.601 75.4653 212.667 74.3537C213.778 73.1991 214.309 71.8235 214.309 70.2236C214.309 68.6238 213.775 67.2482 212.667 66.1365C211.601 65.0248 210.311 64.4475 208.758 64.4475H200.451V64.4508Z" fill="white"/>
<path d="M223.592 54.9901C223.592 53.4364 224.836 52.1927 226.389 52.1927C227.943 52.1927 229.144 53.4364 229.144 54.9901C229.144 56.5438 227.857 57.7445 226.389 57.7445C224.836 57.7445 223.592 56.5438 223.592 54.9901ZM224.348 60.588H228.478V91.6787H224.348V60.588Z" fill="white"/>
<path d="M240.158 87.7697H254.594V91.6787H236.028V60.588H254.373V64.497H240.158V74.0469H253.261V77.9097H240.158V87.7697Z" fill="white"/>
<path d="M258.724 84.6161L262.277 82.5741C263.477 86.3479 266.275 88.215 270.583 88.215C274.891 88.215 277.157 86.305 277.157 83.4186C277.157 81.954 276.58 80.8423 275.468 80.0869C274.356 79.3315 272.447 78.5761 269.827 77.7316L266.852 76.7552C266.186 76.488 265.298 76.0888 264.276 75.6006C263.253 75.0662 262.498 74.5351 262.009 74.0007C260.987 72.889 260.056 71.0681 260.056 68.8052C260.056 66.0969 260.99 63.9626 262.9 62.4089C264.81 60.809 267.119 60.0107 269.827 60.0107C274.759 60.0107 278.533 62.719 280.354 66.8062L276.89 68.8052C275.557 65.6087 273.202 64.0088 269.827 64.0088C266.453 64.0088 264.186 65.7868 264.186 68.6271C264.186 70.0026 264.675 71.0252 265.651 71.7378C266.628 72.447 268.316 73.2024 270.715 73.9578L272.536 74.5351C272.892 74.6671 273.423 74.8452 274.178 75.1586C275.732 75.7358 276.088 75.9569 277.289 76.6232C278.533 77.2896 278.932 77.7778 279.687 78.6651C280.799 79.7768 281.241 81.3734 281.241 83.3296C281.241 86.0378 280.265 88.215 278.266 89.8578C276.266 91.4577 273.69 92.256 270.494 92.256C264.675 92.256 260.367 89.3696 258.724 84.6161Z" fill="white"/>
</g>
<defs>
<clipPath id="clip0_1_24">
<rect width="321.129" height="92.256" fill="white"/>
</clipPath>
</defs>
</svg>
