<svg width="178" height="52" viewBox="0 0 178 52" fill="none" xmlns="http://www.w3.org/2000/svg">
<g clip-path="url(#clip0_1_80)">
<path d="M50.1807 9.91583H50.1843H50.1715V20.4222H50.1203L39.4128 5.73959H36.9663V23.5837H39.2098V8.89919H39.261L49.9412 23.5837H52.3895V9.91583H52.1719" fill="white"/>
<path d="M0.0292556 5.37206H2.55255V24.3425H0.0292556C0.0201132 23.8762 0.0127993 23.5782 0.0127993 23.5782L0.687506 22.2708L0.00914237 20.9397L0.683849 19.5354L0.00914237 18.2939L0.687506 16.9042L0.00914237 15.4981L0.687506 14.0902L0.00914237 12.6841L0.691163 11.4024L0.00914237 10.3071C0.00914237 10.3071 0.245015 9.91581 0.687506 9.18076L0 7.86609L0.674707 6.61359C0.674707 6.61359 0.451633 6.1839 0.0292556 5.37388V5.37206Z" fill="white"/>
<path d="M11.0606 5.37206H13.3096C13.3096 5.37206 14.2568 14.1652 5.02117 14.8582C5.02117 14.8582 13.9569 15.5055 13.3096 24.3443H11.0661C11.0661 24.3443 10.9107 17.6448 3.93506 17.3047V12.5415C3.93506 12.5415 11.0606 13.0096 11.0606 5.37388V5.37206Z" fill="white"/>
<path d="M132.793 21.3474L132.78 4.9003H130.511C130.467 15.5914 130.515 21.7808 130.562 22.2927C130.591 22.6145 130.688 22.8632 130.688 22.8632C130.716 22.9108 130.864 23.1521 131.18 23.3368C131.469 23.5068 131.765 23.5727 132.389 23.5873C132.968 23.6001 133.241 23.5873 133.508 23.5873C134.089 23.5873 139.066 23.5836 141.831 23.5873V21.3492H132.793V21.3474ZM132.029 19.7018C132.029 19.9285 131.844 20.1132 131.617 20.1132C131.391 20.1132 131.206 19.9285 131.206 19.7018V13.3387C131.206 13.112 131.391 12.9273 131.617 12.9273C131.844 12.9273 132.029 13.112 132.029 13.3387V19.7018ZM131.528 11.8284C131.259 11.8284 131.039 11.6108 131.039 11.3402C131.039 11.0696 131.257 10.852 131.528 10.852C131.798 10.852 132.016 11.0696 132.016 11.3402C132.016 11.6108 131.798 11.8284 131.528 11.8284ZM132.014 10.8995C131.871 10.8995 131.756 10.7843 131.756 10.6417C131.756 10.4991 131.871 10.3839 132.014 10.3839C132.157 10.3839 132.272 10.4991 132.272 10.6417C132.272 10.7843 132.157 10.8995 132.014 10.8995ZM132.308 9.55194C132.142 9.33252 132.096 9.29046 132.005 9.29412C131.82 9.30143 131.736 9.50622 131.546 9.47331C131.462 9.45868 131.416 9.40749 131.29 9.40931C131.204 9.40931 131.155 9.43491 131.138 9.44406C131.063 9.48428 131.027 9.54645 131.012 9.5757C130.992 9.5757 130.97 9.57753 130.95 9.57936C130.959 8.35428 130.968 7.12921 130.977 5.9023C131.445 5.9023 131.84 5.9023 132.31 5.90047C132.323 6.82385 132.316 7.7582 132.312 8.70169C132.312 8.98694 132.308 9.27035 132.307 9.55376L132.308 9.55194Z" fill="white"/>
<path d="M132.778 4.47794H130.491C130.374 4.47794 130.279 4.5729 130.279 4.69004V4.76683C130.279 4.88398 130.374 4.97894 130.491 4.97894H132.778C132.895 4.97894 132.99 4.88398 132.99 4.76683V4.69004C132.99 4.5729 132.895 4.47794 132.778 4.47794Z" fill="white"/>
<path d="M132.917 1.86871C133.433 1.86871 133.852 1.45039 133.852 0.934365C133.852 0.418338 133.433 1.52588e-05 132.917 1.52588e-05C132.401 1.52588e-05 131.983 0.418338 131.983 0.934365C131.983 1.45039 132.401 1.86871 132.917 1.86871Z" fill="white"/>
<path d="M130.966 2.9475C131.264 2.9475 131.506 2.706 131.506 2.4081C131.506 2.1102 131.264 1.8687 130.966 1.8687C130.668 1.8687 130.427 2.1102 130.427 2.4081C130.427 2.706 130.668 2.9475 130.966 2.9475Z" fill="white"/>
<path d="M132.331 3.83478C132.539 3.83478 132.707 3.66604 132.707 3.45788C132.707 3.24973 132.539 3.08099 132.331 3.08099C132.122 3.08099 131.954 3.24973 131.954 3.45788C131.954 3.66604 132.122 3.83478 132.331 3.83478Z" fill="white"/>
<path d="M71.5136 16.4581C71.0565 15.7871 70.3415 15.2056 69.3724 14.7119C68.4052 14.2201 67.1527 13.7245 65.5546 13.3497C64.0241 12.9767 62.8247 12.7116 62.0183 12.43C61.2101 12.1502 60.6378 11.8357 60.2977 11.4865C59.9576 11.1391 59.7876 10.7094 59.7876 10.1992C59.7876 9.6891 59.9704 9.19358 60.3361 8.76023C60.3361 8.76023 60.5098 8.54996 60.7256 8.37808C61.2229 7.97947 62.3493 7.59732 64.0077 7.57355C64.8854 7.56075 65.6515 7.5059 66.5529 7.89536C67.1362 8.14769 67.5184 8.20438 67.9426 8.63955L69.537 7.22431C68.9519 6.65932 68.449 6.38322 67.6409 6.03215C66.5712 5.56406 65.39 5.33002 64.0973 5.33002C62.8046 5.33002 61.7093 5.54761 60.7073 5.98095C59.7035 6.4143 58.919 7.00856 58.3486 7.76554C57.7799 8.52253 57.4947 9.35814 57.4947 10.276C57.4947 11.0915 57.7196 11.7973 58.1712 12.3916C58.621 12.9877 59.0946 13.4996 60.0801 13.9586C61.0657 14.4175 62.587 14.9478 64.218 15.3391C65.6789 15.6792 66.851 15.9205 67.6665 16.2442C68.482 16.566 69.0652 16.9317 69.4127 17.3394C69.7619 17.7472 69.9356 18.2665 69.9356 18.8955C69.9356 19.5245 69.7272 20.0456 69.3103 20.5137C68.8952 20.9817 68.3631 21.1938 67.6573 21.4407C66.9515 21.6857 66.1214 21.6985 65.2218 21.6985C63.3696 21.6985 61.9305 21.5413 60.9103 20.7166C59.8918 19.8938 59.2628 18.6395 59.0251 16.9573L56.8328 17.2882C57.0522 19.3965 57.8988 21.0329 59.3689 22.1959C60.8389 23.3606 62.7808 23.942 65.1944 23.942C66.5017 23.942 67.6921 23.7299 68.7635 23.3057C69.8332 22.8797 70.6743 22.2818 71.2868 21.5083C71.8994 20.7349 72.2047 19.8463 72.2047 18.8443C72.2047 17.9264 71.9743 17.131 71.5154 16.4599L71.5136 16.4581ZM69.398 11.3219L71.5648 10.8886C71.3783 9.80063 71.168 9.21552 70.4878 8.37442C70.4768 8.36162 70.4659 8.347 70.4531 8.3342L68.7965 9.68178C69.1878 10.2358 69.2646 10.5905 69.398 11.3219Z" fill="white"/>
<path d="M49.0251 7.29562C49.1001 7.29014 49.4713 7.27002 49.7968 7.5443C50.1003 7.80028 50.157 8.49876 50.1679 8.57921H52.3859C52.3749 8.45853 52.3621 7.75274 52.5907 7.5059C52.7753 7.30659 53.0185 7.27551 53.2251 7.25174C53.8157 7.18226 54.3039 7.42727 54.5453 7.57355C54.6879 7.50773 54.8324 7.44373 54.975 7.3779C54.4009 6.80925 53.8322 6.46184 53.4318 6.25522C52.1975 5.62074 51.0584 5.55857 50.7549 5.56223C50.7019 5.56223 50.1167 5.56954 50.1167 5.56954C50.1094 5.6372 50.0619 5.98461 49.7474 6.23511C49.4439 6.4783 49.1056 6.45635 49.0343 6.45087C49.0306 6.73245 49.027 7.01404 49.0251 7.29562Z" fill="white"/>
<path d="M48.2423 6.07602H47.6737C47.5182 6.07602 47.3921 6.20209 47.3921 6.3576V7.49491C47.3921 7.65043 47.5182 7.7765 47.6737 7.7765H48.2423C48.3978 7.7765 48.5239 7.65043 48.5239 7.49491V6.3576C48.5239 6.20209 48.3978 6.07602 48.2423 6.07602Z" fill="white"/>
<path d="M68.8219 6.08151L66.7064 7.93741C66.4211 8.18791 66.4028 8.62675 66.668 8.89919C66.9093 9.14603 67.3006 9.16797 67.5657 8.94856L69.7416 7.14934C70.0488 6.89518 70.0634 6.43075 69.7764 6.15831L69.716 6.10162C69.4674 5.86575 69.0797 5.85661 68.8219 6.08334V6.08151Z" fill="white"/>
<path d="M58.3485 16.4307L55.6314 17.1639C55.2639 17.2626 55.0555 17.6484 55.1725 18.0105C55.2804 18.3396 55.6205 18.5298 55.9569 18.4493L58.7033 17.7947C59.0909 17.7033 59.3085 17.2937 59.1714 16.9189L59.1421 16.8421C59.0233 16.5203 58.6777 16.3429 58.3467 16.4307H58.3485Z" fill="white"/>
<path d="M71.4147 9.6964L68.8804 10.2724C68.5385 10.351 68.3319 10.6984 68.427 11.0367C68.5129 11.3439 68.8219 11.5322 69.1346 11.4719L71.6908 10.9672C72.051 10.8959 72.2686 10.5265 72.1552 10.1773L72.1315 10.1042C72.0327 9.80246 71.7219 9.62509 71.4129 9.6964H71.4147Z" fill="white"/>
<path d="M113.082 19.8627H113.83L114.684 17.9245H113.082V19.8627ZM120.169 5.73959H117.825L109.794 23.5837H112.365L114.005 19.8627L114.859 17.9245L115.146 17.2718L118.997 8.36345L123.155 18.0251L123.665 19.1898L124.003 19.9633L125.631 23.6842L128.2 23.5837L120.169 5.73959Z" fill="white"/>
<path d="M118.181 16.9152H116.821C116.535 16.9152 116.303 17.1469 116.303 17.4327V18.7931C116.303 19.0788 116.535 19.3105 116.821 19.3105H118.181C118.467 19.3105 118.699 19.0788 118.699 18.7931V17.4327C118.699 17.1469 118.467 16.9152 118.181 16.9152Z" fill="white"/>
<path d="M121.163 16.9152H119.803C119.517 16.9152 119.286 17.1469 119.286 17.4327V18.7931C119.286 19.0788 119.517 19.3105 119.803 19.3105H121.163C121.449 19.3105 121.681 19.0788 121.681 18.7931V17.4327C121.681 17.1469 121.449 16.9152 121.163 16.9152Z" fill="white"/>
<path d="M118.181 19.8975H116.821C116.535 19.8975 116.303 20.1291 116.303 20.4149V21.7753C116.303 22.0611 116.535 22.2928 116.821 22.2928H118.181C118.467 22.2928 118.699 22.0611 118.699 21.7753V20.4149C118.699 20.1291 118.467 19.8975 118.181 19.8975Z" fill="white"/>
<path d="M121.163 19.8975H119.803C119.517 19.8975 119.286 20.1291 119.286 20.4149V21.7753C119.286 22.0611 119.517 22.2928 119.803 22.2928H121.163C121.449 22.2928 121.681 22.0611 121.681 21.7753V20.4149C121.681 20.1291 121.449 19.8975 121.163 19.8975Z" fill="white"/>
<path d="M158.803 23.516C159.399 22.9894 159.165 22.4152 158.973 21.885C158.75 21.267 158.47 20.6672 158.185 20.0748C158.128 19.9578 157.934 19.8371 157.804 19.8371C154.584 19.8243 151.365 19.8243 148.145 19.8371C148.017 19.8371 147.83 19.9614 147.772 20.0785C147.53 20.5612 147.325 21.064 147.108 21.5613C146.834 22.1922 146.947 22.748 147.431 23.2344C147.499 23.302 147.556 23.3825 147.68 23.5306H145.982C145.813 23.5306 145.643 23.5306 145.475 23.5306C144.641 23.5306 144.014 22.9053 144.336 22.119C144.868 20.8172 145.618 19.5409 146.19 18.2555C147.119 16.1692 148.048 14.0847 148.982 12.0003C149.874 10.009 150.77 8.01967 151.679 6.03578C151.732 5.91875 151.911 5.79259 152.036 5.78893C152.67 5.76333 153.308 5.76151 153.943 5.78893C154.08 5.79442 154.274 5.93704 154.332 6.06686C155.206 7.99407 156.034 9.96151 156.896 11.896C158.07 14.5345 159.273 17.1419 160.441 19.7841C160.818 20.6343 161.037 21.4864 161.374 22.3512C161.584 22.8888 161.268 23.4483 160.693 23.4995C160.015 23.5599 159.485 23.5142 158.801 23.5142L158.803 23.516ZM156.991 17.8422C157.143 17.8422 157.234 17.6758 157.155 17.546C156.618 16.6665 156.223 16.0247 156 15.6627C155.34 14.5912 155.021 14.0792 154.731 13.2784C154.552 12.7828 154.449 12.355 154.389 12.0606C154.387 12.0496 154.385 12.0405 154.385 12.0295C154.38 11.8869 154.338 10.7587 154.327 10.4918C154.327 10.4552 154.334 10.4205 154.352 10.3875C154.394 10.3126 154.48 10.1535 154.561 9.94505C154.563 9.93957 154.566 9.93225 154.568 9.92677C154.712 9.5501 154.499 9.23195 154.096 9.22281C153.262 9.20269 152.427 9.20452 151.593 9.22646C151.447 9.23012 151.231 9.36543 151.18 9.49342C151.13 9.61593 151.248 9.80975 151.304 9.96699C151.359 10.1151 151.489 10.2577 151.487 10.4022C151.482 10.9471 151.447 11.4901 151.401 12.0332C151.363 12.4683 151.149 12.92 150.97 13.2948C150.496 14.2804 150.236 14.8984 149.708 15.8583C149.463 16.3027 149.052 17.0011 148.742 17.5552C148.671 17.685 148.764 17.8441 148.913 17.8441H156.991V17.8422ZM153.321 7.91911C153.643 7.92276 153.895 7.69055 153.908 7.37605C153.919 7.08166 153.606 6.76351 153.316 6.77265C153.05 6.78179 152.743 7.09812 152.741 7.36325C152.741 7.66312 153.005 7.91545 153.321 7.91911ZM152.35 7.97396C152.187 8.1952 152.005 8.33417 152.015 8.4585C152.026 8.58284 152.226 8.78214 152.345 8.78397C152.462 8.78397 152.661 8.5865 152.674 8.46033C152.687 8.33783 152.507 8.1952 152.35 7.97396Z" fill="white"/>
<path d="M153.928 2.12651C154.502 2.12651 154.965 2.58545 154.961 3.1468C154.958 3.70814 154.479 4.17805 153.917 4.17257C153.356 4.16526 152.869 3.68254 152.877 3.13948C152.884 2.57631 153.354 2.12468 153.928 2.12468V2.12651Z" fill="white"/>
<path d="M152.185 4.64798C151.873 4.64798 151.679 4.45599 151.683 4.14515C151.684 3.85808 151.919 3.61855 152.196 3.64597C152.487 3.6734 152.67 3.84528 152.697 4.14149C152.723 4.41759 152.478 4.64981 152.185 4.64981V4.64798Z" fill="white"/>
<path d="M32.8558 12.9218L34.2363 12.1502L32.1629 8.44573L30.7732 9.22283L27.3393 7.24076V5.56223H23.0936V6.98112L19.21 9.22283L17.8203 8.44573L15.7468 12.1502L17.1273 12.9218V16.8604L15.7468 17.632L17.8203 21.3365L19.0765 20.6343L23.0936 22.9528V24.3717H27.3393V22.6932L30.9067 20.6325L32.1629 21.3346L34.2363 17.6301L32.8558 16.8585V12.92V12.9218ZM25.4085 20.7934C25.1763 20.8099 22.4317 20.9635 20.5466 18.7675C19.0911 17.0743 19.1313 15.1251 19.1441 14.7503C19.2209 12.7426 20.318 11.4335 20.6453 11.0714C20.8903 10.8008 22.4463 9.12958 24.9898 9.12958C27.354 9.12958 28.8497 10.5704 29.113 10.8319C29.347 11.0641 30.914 12.6823 30.8208 15.1855C30.7494 17.0999 29.7474 18.3743 29.4457 18.7309C29.208 19.0125 27.8056 20.6197 25.4085 20.7934Z" fill="white"/>
<path d="M81.3251 16.2478V17.7655L83.5687 16.7086V15.191L81.3251 16.2478ZM81.3251 11.9107V13.4283L83.5687 12.3715V10.8557L81.3251 11.9107ZM74.6201 5.73959V7.98313H81.3251V9.15518L83.5687 8.09832V7.98313H90.2993V5.73959H74.6201ZM81.3251 11.2598L83.5687 10.2029V8.68709L81.3251 9.74212V11.2598ZM81.3251 14.0793V15.5969L83.5687 14.54V13.0242L81.3251 14.0793ZM81.3251 18.4146V19.9322L83.5687 18.8753V17.3595L81.3251 18.4146ZM81.3251 20.5831V21.3273L82.3856 24.0646L83.5687 21.3273V19.5281L81.3251 20.5831Z" fill="white"/>
<path d="M177.236 15.7194C176.726 14.9972 176.036 14.4504 175.17 14.0756V14.0244C175.85 13.6679 176.382 13.1796 176.764 12.5598C177.146 11.9381 177.336 11.2031 177.336 10.3528C177.336 9.43677 177.121 8.62858 176.687 7.93193C176.254 7.23528 175.645 6.69588 174.864 6.31373C174.082 5.93158 173.173 5.73959 172.136 5.73959H167.96V7.77834H171.626C172.765 7.77834 173.628 8.00873 174.213 8.46768C174.8 8.92662 175.095 9.58122 175.095 10.4296C175.095 11.3823 174.809 12.0954 174.239 12.5708C173.67 13.048 172.8 13.2857 171.626 13.2857H167.96V15.1965H171.372C172.935 15.1965 174.056 15.4433 174.736 15.937C175.416 16.4307 175.756 17.2279 175.756 18.3323C175.756 19.4367 175.404 20.2705 174.698 20.7806C173.994 21.2908 172.867 21.5449 171.321 21.5449H167.96V23.5855H171.728C173.769 23.5855 175.323 23.1339 176.395 22.2342C177.464 21.3328 178 20.0236 178 18.3067C178 17.3047 177.746 16.4416 177.236 15.7194ZM164.458 23.5855H165.927C166.133 23.5855 166.301 23.4173 166.301 23.2107V13.2857H164.083V23.2107C164.083 23.4173 164.252 23.5855 164.458 23.5855Z" fill="white"/>
<path d="M166.305 14.6552V9.74943C166.305 9.74943 167.413 9.3618 167.413 7.85696C167.413 6.35213 166.305 5.77068 166.305 5.77068V7.80942L165.157 8.46402L164.087 7.83319V5.77068C164.087 5.77068 162.974 6.42527 162.974 7.90633C162.974 9.3874 164.087 9.74943 164.087 9.74943V14.6552H166.305Z" fill="white"/>
<path d="M103.075 16.3411C104.6 16.2295 105.825 15.7724 106.746 14.9679C107.818 14.0335 108.352 12.7244 108.352 11.0422C108.352 9.95422 108.11 9.01073 107.626 8.21169C107.141 7.41264 106.448 6.80193 105.549 6.3759C104.647 5.95169 103.559 5.73776 102.285 5.73776H93.5667V6.18025H95.7901V6.716H93.5667V7.82039H95.0569V8.35614H93.5667V9.46053H94.554V9.99628H93.5667V11.1007H95.0569V11.6364H93.5667V12.7408H94.554V13.2766H93.5667V14.3773H94.3127V14.913H93.5667V16.0376H95.0569V16.5733H93.5667V17.6777H94.554V18.2134H93.5667V19.3178H95.0569V19.8536H93.5667V20.9799H94.3127V21.5157H93.5667V22.642H95.0569V23.1777H93.5667V23.5763H95.8102V16.3612H100.577L105.115 23.5763H107.715L103.075 16.3612V16.3338V16.3411ZM95.8102 14.3298V7.77834H102.107C103.45 7.77834 104.453 8.05444 105.115 8.60664C105.777 9.15884 106.11 9.97068 106.11 11.0422C106.11 12.1136 105.779 12.9493 105.115 13.5015C104.453 14.0537 103.466 14.3298 102.159 14.3298H95.8102Z" fill="white"/>
<path d="M0 30.4807C0 29.6194 0.689333 28.9301 1.55054 28.9301C2.41176 28.9301 3.07732 29.6194 3.07732 30.4807C3.07732 31.3419 2.36421 32.0074 1.55054 32.0074C0.689333 32.0074 0 31.3419 0 30.4807ZM0.418719 33.5836H2.70797V50.8169H0.418719V33.5836Z" fill="white"/>
<path d="M17.6027 33.5836H19.8919V50.8169H18.0452L9.18256 37.9408V50.8169H6.89331V33.5836H8.74007L17.6027 46.4359V33.5836Z" fill="white"/>
<path d="M30.7989 33.5836C33.1375 33.5836 35.083 34.421 36.6335 36.094C38.1841 37.7433 38.9721 39.7876 38.9721 42.1993C38.9721 44.6111 38.1841 46.6553 36.6335 48.3302C35.083 49.9795 33.1375 50.8169 30.7989 50.8169H24.0774V33.5836H30.7989ZM30.7989 48.6502C32.5469 48.6502 33.9987 48.034 35.1067 46.8034C36.2148 45.5729 36.7816 44.0461 36.7816 42.1993C36.7816 40.3526 36.2148 38.8258 35.1067 37.5952C33.9987 36.3647 32.5469 35.7485 30.7989 35.7485H26.3666V48.6483H30.7989V48.6502Z" fill="white"/>
<path d="M41.9031 33.5836H44.1923V44.9329C44.1923 47.3702 45.6935 48.897 48.3777 48.897C51.0619 48.897 52.5631 47.3702 52.5631 44.9329V33.5836H54.8286V45.0316C54.8286 46.8784 54.238 48.3796 53.0312 49.4876C51.8244 50.5957 50.2738 51.1369 48.3777 51.1369C46.4816 51.1369 44.9054 50.5957 43.7005 49.4876C42.4937 48.3796 41.9031 46.8784 41.9031 45.0316V33.5836Z" fill="white"/>
<path d="M57.8564 46.9022L59.8257 45.7703C60.4913 47.8621 62.0418 48.897 64.4298 48.897C66.8178 48.897 68.074 47.8383 68.074 46.2384C68.074 45.4266 67.754 44.8104 67.1378 44.3917C66.5216 43.9729 65.4629 43.5542 64.0111 43.0861L62.3618 42.5449C61.9925 42.3968 61.5006 42.1756 60.9338 41.9049C60.3669 41.6087 59.9482 41.3143 59.6776 41.0181C59.1108 40.4019 58.5951 39.3926 58.5951 38.1383C58.5951 36.6371 59.1126 35.4541 60.1713 34.5929C61.23 33.7061 62.5099 33.2636 64.0111 33.2636C66.7447 33.2636 68.8364 34.7648 69.8457 37.0302L67.9258 38.1383C67.1871 36.3665 65.8816 35.4797 64.0111 35.4797C62.1406 35.4797 60.8844 36.4652 60.8844 38.0396C60.8844 38.802 61.155 39.3689 61.6962 39.7638C62.2375 40.1569 63.1736 40.5756 64.5029 40.9944L65.5123 41.3143C65.7097 41.3875 66.0041 41.4862 66.4228 41.6599C67.2841 41.9799 67.4815 42.1024 68.1471 42.4718C68.8364 42.8411 69.0577 43.1117 69.4764 43.6036C70.0926 44.2198 70.3376 45.1048 70.3376 46.1891C70.3376 47.6902 69.7964 48.897 68.6883 49.8076C67.5803 50.6944 66.1522 51.1369 64.3804 51.1369C61.155 51.1369 58.767 49.537 57.8564 46.9022Z" fill="white"/>
<path d="M83.9527 33.5836V35.7503H78.8567V50.8169H76.5912V35.7503H71.519V33.5836H83.9527Z" fill="white"/>
<path d="M96.9275 50.8169L93.0621 44.2198H88.9992V50.8169H86.71V33.5836H93.6033C95.0807 33.5836 96.3369 34.101 97.3956 35.1597C98.4542 36.1946 98.9717 37.4489 98.9717 38.9264C98.9717 40.0344 98.6261 41.0675 97.9624 41.9799C97.2968 42.8905 96.4612 43.556 95.4025 43.9254L99.4654 50.8187H96.9293L96.9275 50.8169ZM89.001 35.7247V42.15H93.6051C94.4663 42.15 95.1813 41.83 95.7719 41.2138C96.3881 40.5738 96.6824 39.8113 96.6824 38.9245C96.6824 38.0377 96.3862 37.2752 95.7719 36.659C95.1813 36.0429 94.4663 35.7229 93.6051 35.7229H89.001V35.7247Z" fill="white"/>
<path d="M101.828 30.4806C101.828 29.6194 102.517 28.9301 103.378 28.9301C104.239 28.9301 104.905 29.6194 104.905 30.4806C104.905 31.3418 104.192 32.0074 103.378 32.0074C102.517 32.0074 101.828 31.3418 101.828 30.4806ZM102.246 33.5835H104.536V50.8169H102.246V33.5835Z" fill="white"/>
<path d="M111.01 48.6502H119.012V50.8169H108.721V33.5836H118.889V35.7503H111.01V41.0437H118.273V43.1849H111.01V48.6502Z" fill="white"/>
<path d="M121.301 46.9022L123.27 45.7703C123.936 47.8621 125.486 48.897 127.874 48.897C130.262 48.897 131.519 47.8383 131.519 46.2384C131.519 45.4266 131.199 44.8104 130.582 44.3917C129.966 43.9729 128.907 43.5542 127.456 43.0861L125.806 42.5449C125.437 42.3968 124.945 42.1756 124.378 41.9049C123.812 41.6087 123.393 41.3143 123.122 41.0181C122.555 40.4019 122.04 39.3926 122.04 38.1383C122.04 36.6371 122.557 35.4541 123.616 34.5929C124.675 33.7061 125.954 33.2636 127.456 33.2636C130.189 33.2636 132.281 34.7648 133.29 37.0302L131.37 38.1383C130.632 36.3665 129.326 35.4797 127.456 35.4797C125.585 35.4797 124.329 36.4652 124.329 38.0396C124.329 38.802 124.6 39.3689 125.141 39.7638C125.682 40.1569 126.618 40.5756 127.948 40.9944L128.957 41.3143C129.154 41.3875 129.449 41.4862 129.867 41.6599C130.729 41.9799 130.926 42.1024 131.592 42.4718C132.281 42.8411 132.502 43.1117 132.921 43.6036C133.537 44.2198 133.782 45.1048 133.782 46.1891C133.782 47.6902 133.241 48.897 132.133 49.8076C131.025 50.6944 129.597 51.1369 127.825 51.1369C124.6 51.1369 122.212 49.537 121.301 46.9022Z" fill="white"/>
</g>
<defs>
<clipPath id="clip0_1_80">
<rect width="178" height="51.1369" fill="white"/>
</clipPath>
</defs>
</svg>
