<svg width="224" height="65" viewBox="0 0 224 65" fill="none" xmlns="http://www.w3.org/2000/svg">
<g clip-path="url(#clip0_161_6357)">
<path d="M63.0959 12.4674H63.1005H63.0844V25.6779H63.02L49.5566 7.21631H46.4805V29.653H49.3014V11.1891H49.3658L62.7947 29.653H65.8732V12.4674H65.5996" fill="white"/>
<path d="M0.0367852 6.75391H3.20951V30.6068H0.0367852C0.0252898 30.0206 0.0160935 29.6458 0.0160935 29.6458L0.864453 28.002L0.0114954 26.3282L0.859855 24.5626L0.0114954 23.0015L0.864453 21.2542L0.0114954 19.4862L0.864453 17.7159L0.0114954 15.9479L0.869051 14.3363L0.0114954 12.9591C0.0114954 12.9591 0.308076 12.4671 0.864453 11.5429L0 9.88985L0.848359 8.31498C0.848359 8.31498 0.567872 7.7747 0.0367852 6.75621V6.75391Z" fill="white"/>
<path d="M13.9072 6.75391H16.7351C16.7351 6.75391 17.926 17.8102 6.31334 18.6815C6.31334 18.6815 17.5489 19.4954 16.7351 30.6091H13.9141C13.9141 30.6091 13.7187 22.1853 4.94769 21.7577V15.7686C4.94769 15.7686 13.9072 16.3572 13.9072 6.75621V6.75391Z" fill="white"/>
<path d="M166.97 26.8413L166.954 6.16113H164.101C164.046 19.6038 164.106 27.3862 164.166 28.03C164.202 28.4346 164.324 28.7473 164.324 28.7473C164.359 28.807 164.545 29.1105 164.943 29.3427C165.306 29.5565 165.678 29.6393 166.462 29.6577C167.191 29.6738 167.534 29.6577 167.869 29.6577C168.601 29.6577 174.859 29.6531 178.335 29.6577V26.8436H166.97V26.8413ZM166.009 24.7722C166.009 25.0572 165.777 25.2895 165.492 25.2895C165.207 25.2895 164.975 25.0572 164.975 24.7722V16.7714C164.975 16.4863 165.207 16.2541 165.492 16.2541C165.777 16.2541 166.009 16.4863 166.009 16.7714V24.7722ZM165.38 14.8723C165.042 14.8723 164.766 14.5987 164.766 14.2585C164.766 13.9182 165.039 13.6446 165.38 13.6446C165.72 13.6446 165.993 13.9182 165.993 14.2585C165.993 14.5987 165.72 14.8723 165.38 14.8723ZM165.991 13.7044C165.812 13.7044 165.667 13.5596 165.667 13.3802C165.667 13.2009 165.812 13.0561 165.991 13.0561C166.17 13.0561 166.315 13.2009 166.315 13.3802C166.315 13.5596 166.17 13.7044 165.991 13.7044ZM166.361 12.01C166.152 11.7341 166.095 11.6812 165.98 11.6858C165.747 11.695 165.642 11.9525 165.403 11.9111C165.297 11.8927 165.239 11.8284 165.081 11.8307C164.973 11.8307 164.911 11.8628 164.89 11.8743C164.796 11.9249 164.75 12.0031 164.731 12.0399C164.706 12.0399 164.678 12.0422 164.653 12.0445C164.665 10.5041 164.676 8.96371 164.688 7.42103C165.276 7.42103 165.773 7.42103 166.364 7.41873C166.38 8.57976 166.37 9.75459 166.366 10.9409C166.366 11.2996 166.361 11.6559 166.359 12.0123L166.361 12.01Z" fill="white"/>
<path d="M166.952 5.63037H164.076C163.929 5.63037 163.809 5.74977 163.809 5.89706V5.99363C163.809 6.14092 163.929 6.26032 164.076 6.26032H166.952C167.099 6.26032 167.219 6.14092 167.219 5.99363V5.89706C167.219 5.74977 167.099 5.63037 166.952 5.63037Z" fill="white"/>
<path d="M167.127 2.34966C167.776 2.34966 168.302 1.82367 168.302 1.17483C168.302 0.525989 167.776 0 167.127 0C166.478 0 165.952 0.525989 165.952 1.17483C165.952 1.82367 166.478 2.34966 167.127 2.34966Z" fill="white"/>
<path d="M164.674 3.70558C165.048 3.70558 165.352 3.40192 165.352 3.02735C165.352 2.65277 165.048 2.34912 164.674 2.34912C164.299 2.34912 163.995 2.65277 163.995 3.02735C163.995 3.40192 164.299 3.70558 164.674 3.70558Z" fill="white"/>
<path d="M166.389 4.82132C166.651 4.82132 166.863 4.60915 166.863 4.34743C166.863 4.0857 166.651 3.87354 166.389 3.87354C166.127 3.87354 165.915 4.0857 165.915 4.34743C165.915 4.60915 166.127 4.82132 166.389 4.82132Z" fill="white"/>
<path d="M89.9192 20.6938C89.3445 19.8501 88.4455 19.119 87.227 18.4982C86.0108 17.8798 84.4359 17.2567 82.4266 16.7854C80.5022 16.3164 78.994 15.983 77.9801 15.629C76.9639 15.2772 76.2443 14.8818 75.8167 14.4427C75.3891 14.0058 75.1753 13.4655 75.1753 12.8241C75.1753 12.1827 75.4052 11.5596 75.865 11.0147C75.865 11.0147 76.0834 10.7503 76.3547 10.5342C76.98 10.033 78.3963 9.55252 80.4815 9.52263C81.5851 9.50653 82.5484 9.43756 83.6819 9.92727C84.4153 10.2445 84.8958 10.3158 85.4291 10.863L87.4339 9.0835C86.6982 8.37309 86.066 8.02593 85.0498 7.58451C83.7048 6.99594 82.2196 6.70166 80.5942 6.70166C78.9687 6.70166 77.5916 6.97525 76.3317 7.52013C75.0695 8.06501 74.0832 8.81221 73.3659 9.76403C72.6509 10.7158 72.2922 11.7665 72.2922 12.9207C72.2922 13.9461 72.575 14.8335 73.1429 15.5807C73.7085 16.3302 74.3039 16.9739 75.5431 17.551C76.7823 18.1281 78.6952 18.7948 80.7459 19.2868C82.5829 19.7144 84.0566 20.0179 85.082 20.4248C86.1074 20.8295 86.8408 21.2893 87.2776 21.802C87.7167 22.3147 87.9351 22.9676 87.9351 23.7585C87.9351 24.5494 87.673 25.2046 87.1489 25.7932C86.627 26.3818 85.9579 26.6485 85.0705 26.9588C84.183 27.2669 83.1393 27.283 82.0081 27.283C79.6792 27.283 77.8698 27.0853 76.5869 26.0484C75.3063 25.0138 74.5154 23.4366 74.2166 21.3215L71.46 21.7376C71.7359 24.3885 72.8003 26.4461 74.6488 27.9083C76.4972 29.3729 78.9389 30.104 81.9736 30.104C83.6175 30.104 85.1142 29.8373 86.4614 29.3039C87.8064 28.7682 88.864 28.0164 89.6342 27.0439C90.4044 26.0714 90.7883 24.954 90.7883 23.6941C90.7883 22.54 90.4986 21.5399 89.9215 20.6961L89.9192 20.6938ZM87.2592 14.2357L89.9836 13.6909C89.7491 12.3229 89.4847 11.5872 88.6295 10.5296C88.6157 10.5135 88.6019 10.4951 88.5858 10.479L86.5028 12.1735C86.9948 12.8701 87.0914 13.3161 87.2592 14.2357Z" fill="white"/>
<path d="M61.6428 9.17336C61.7371 9.16646 62.2038 9.14117 62.613 9.48603C62.9947 9.8079 63.066 10.6861 63.0797 10.7873H65.8685C65.8547 10.6356 65.8386 9.74813 66.126 9.43775C66.3582 9.18715 66.664 9.14807 66.9238 9.11818C67.6664 9.03081 68.2803 9.33889 68.5837 9.52282C68.7631 9.44005 68.9447 9.35958 69.124 9.27682C68.4021 8.5618 67.6871 8.12498 67.1836 7.86518C65.6317 7.0674 64.1994 6.98923 63.8177 6.99383C63.7511 6.99383 63.0154 7.00303 63.0154 7.00303C63.0062 7.08809 62.9464 7.52492 62.551 7.83989C62.1693 8.14567 61.744 8.11808 61.6543 8.11118C61.6497 8.46524 61.6451 8.8193 61.6428 9.17336Z" fill="white"/>
<path d="M60.6589 7.63916H59.9439C59.7484 7.63916 59.5898 7.79768 59.5898 7.99322V9.42324C59.5898 9.61879 59.7484 9.7773 59.9439 9.7773H60.6589C60.8545 9.7773 61.013 9.61879 61.013 9.42324V7.99322C61.013 7.79768 60.8545 7.63916 60.6589 7.63916Z" fill="white"/>
<path d="M86.535 7.64642L83.875 9.97998C83.5163 10.295 83.4933 10.8467 83.8267 11.1893C84.1302 11.4997 84.6222 11.5273 84.9555 11.2514L87.6914 8.98908C88.0777 8.66951 88.0961 8.08554 87.7351 7.74298L87.6593 7.67171C87.3466 7.37513 86.8592 7.36363 86.535 7.64872V7.64642Z" fill="white"/>
<path d="M73.3659 20.6595L69.9495 21.5814C69.4874 21.7056 69.2253 22.1907 69.3724 22.6459C69.5081 23.0597 69.9357 23.2988 70.3587 23.1977L73.8119 22.3746C74.2993 22.2596 74.5729 21.7446 74.4005 21.2733L74.3637 21.1768C74.2143 20.7721 73.7797 20.5491 73.3636 20.6595H73.3659Z" fill="white"/>
<path d="M89.7951 12.1912L86.6086 12.9154C86.1787 13.0142 85.9189 13.4511 86.0384 13.8764C86.1465 14.2626 86.535 14.4994 86.9282 14.4236L90.1423 13.789C90.5952 13.6994 90.8688 13.2349 90.7262 12.7958L90.6963 12.7039C90.5722 12.3245 90.1813 12.1015 89.7928 12.1912H89.7951Z" fill="white"/>
<path d="M142.186 24.9744H143.127L144.2 22.5374H142.186V24.9744ZM151.098 7.21631H148.15L138.053 29.653H141.285L143.348 24.9744L144.421 22.5374L144.782 21.7166L149.624 10.5155L154.852 22.6638L155.494 24.1283L155.919 25.1008L157.965 29.7795L161.195 29.653L151.098 7.21631Z" fill="white"/>
<path d="M148.599 21.2681H146.888C146.529 21.2681 146.238 21.5594 146.238 21.9187V23.6292C146.238 23.9886 146.529 24.2799 146.888 24.2799H148.599C148.958 24.2799 149.249 23.9886 149.249 23.6292V21.9187C149.249 21.5594 148.958 21.2681 148.599 21.2681Z" fill="white"/>
<path d="M152.348 21.2681H150.638C150.279 21.2681 149.987 21.5594 149.987 21.9187V23.6292C149.987 23.9886 150.279 24.2799 150.638 24.2799H152.348C152.708 24.2799 152.999 23.9886 152.999 23.6292V21.9187C152.999 21.5594 152.708 21.2681 152.348 21.2681Z" fill="white"/>
<path d="M148.599 25.0186H146.888C146.529 25.0186 146.238 25.3099 146.238 25.6692V27.3797C146.238 27.739 146.529 28.0303 146.888 28.0303H148.599C148.958 28.0303 149.249 27.739 149.249 27.3797V25.6692C149.249 25.3099 148.958 25.0186 148.599 25.0186Z" fill="white"/>
<path d="M152.348 25.0186H150.638C150.279 25.0186 149.987 25.3099 149.987 25.6692V27.3797C149.987 27.739 150.279 28.0303 150.638 28.0303H152.348C152.708 28.0303 152.999 27.739 152.999 27.3797V25.6692C152.999 25.3099 152.708 25.0186 152.348 25.0186Z" fill="white"/>
<path d="M199.675 29.5675C200.424 28.9054 200.13 28.1834 199.889 27.5167C199.608 26.7396 199.256 25.9855 198.898 25.2406C198.826 25.0935 198.583 24.9417 198.42 24.9417C194.371 24.9257 190.322 24.9257 186.273 24.9417C186.113 24.9417 185.878 25.0981 185.804 25.2452C185.501 25.8522 185.243 26.4844 184.97 27.1098C184.625 27.903 184.768 28.6019 185.377 29.2134C185.462 29.2985 185.533 29.3997 185.69 29.5859H183.554C183.342 29.5859 183.128 29.5859 182.917 29.5859C181.868 29.5859 181.08 28.7996 181.485 27.811C182.154 26.1741 183.096 24.5693 183.816 22.953C184.984 20.3298 186.152 17.7089 187.326 15.0879C188.448 12.5842 189.575 10.0828 190.718 7.58831C190.784 7.44117 191.01 7.28254 191.166 7.27794C191.964 7.24575 192.766 7.24345 193.564 7.27794C193.736 7.28484 193.98 7.46416 194.054 7.6274C195.153 10.0506 196.194 12.5244 197.277 14.9569C198.753 18.2744 200.266 21.5529 201.735 24.8751C202.208 25.9441 202.484 27.0155 202.907 28.103C203.172 28.7789 202.774 29.4824 202.052 29.5468C201.199 29.6227 200.532 29.5652 199.673 29.5652L199.675 29.5675ZM197.396 22.4335C197.587 22.4335 197.702 22.2242 197.603 22.061C196.927 20.9551 196.431 20.1482 196.15 19.693C195.32 18.3457 194.92 17.702 194.555 16.695C194.329 16.0719 194.201 15.5339 194.125 15.1638C194.123 15.15 194.12 15.1385 194.12 15.1247C194.113 14.9454 194.06 13.5268 194.047 13.1912C194.047 13.1452 194.056 13.1015 194.079 13.0601C194.132 12.9659 194.24 12.7658 194.341 12.5037C194.343 12.4968 194.348 12.4876 194.35 12.4808C194.532 12.0071 194.263 11.6071 193.757 11.5956C192.709 11.5703 191.658 11.5726 190.61 11.6002C190.426 11.6048 190.154 11.7749 190.09 11.9359C190.028 12.0899 190.175 12.3336 190.246 12.5313C190.315 12.7176 190.479 12.8969 190.476 13.0785C190.469 13.7636 190.426 14.4465 190.368 15.1293C190.32 15.6765 190.051 16.2443 189.826 16.7157C189.23 17.9549 188.904 18.7319 188.239 19.939C187.931 20.4976 187.414 21.3759 187.025 22.0725C186.936 22.2357 187.053 22.4358 187.239 22.4358H197.396V22.4335ZM192.782 9.95636C193.187 9.96096 193.504 9.66898 193.52 9.27354C193.534 8.90339 193.141 8.50335 192.775 8.51484C192.442 8.52634 192.056 8.92408 192.053 9.25745C192.053 9.63449 192.384 9.95177 192.782 9.95636ZM191.561 10.0253C191.357 10.3035 191.127 10.4783 191.141 10.6346C191.154 10.7909 191.405 11.0415 191.554 11.0438C191.702 11.0438 191.952 10.7955 191.968 10.6369C191.984 10.4829 191.759 10.3035 191.561 10.0253Z" fill="white"/>
<path d="M193.546 2.6732C194.267 2.6732 194.849 3.25027 194.844 3.95608C194.84 4.6619 194.238 5.25276 193.532 5.24586C192.826 5.23667 192.214 4.62971 192.224 3.94689C192.233 3.23877 192.824 2.6709 193.546 2.6709V2.6732Z" fill="white"/>
<path d="M191.354 5.84316C190.961 5.84316 190.718 5.60175 190.722 5.21091C190.725 4.84996 191.019 4.54878 191.368 4.58326C191.734 4.61775 191.964 4.83386 191.998 5.20631C192.03 5.55347 191.722 5.84546 191.354 5.84546V5.84316Z" fill="white"/>
<path d="M41.3121 16.2474L43.0479 15.2772L40.4408 10.6193L38.6935 11.5964L34.3758 9.1042V6.99365H29.0374V8.77774L24.1541 11.5964L22.4068 10.6193L19.7997 15.2772L21.5355 16.2474V21.1996L19.7997 22.1699L22.4068 26.8278L23.9863 25.9449L29.0374 28.8602V30.6443H34.3758V28.5337L38.8613 25.9426L40.4408 26.8255L43.0479 22.1676L41.3121 21.1973V16.2451V16.2474ZM31.948 26.145C31.656 26.1657 28.2051 26.3588 25.8348 23.5976C24.0047 21.4686 24.0553 19.0178 24.0714 18.5465C24.1679 16.0221 25.5474 14.376 25.9589 13.9208C26.267 13.5805 28.2235 11.4792 31.4215 11.4792C34.3942 11.4792 36.2749 13.2908 36.6059 13.6196C36.9002 13.9116 38.8705 15.9463 38.7533 19.0937C38.6636 21.5008 37.4037 23.1033 37.0244 23.5516C36.7255 23.9057 34.9621 25.9266 31.948 26.145Z" fill="white"/>
<path d="M102.256 20.4291V22.3373L105.077 21.0085V19.1002L102.256 20.4291ZM102.256 14.9757V16.8839L105.077 15.5551V13.6491L102.256 14.9757ZM93.8254 7.21631V10.0373H102.256V11.511L105.077 10.1821V10.0373H113.54V7.21631H93.8254ZM102.256 14.1572L105.077 12.8284V10.9224L102.256 12.249V14.1572ZM102.256 17.7024V19.6106L105.077 18.2818V16.3758L102.256 17.7024ZM102.256 23.1535V25.0617L105.077 23.7329V21.8269L102.256 23.1535ZM102.256 25.8802V26.8159L103.59 30.2577L105.077 26.8159V24.5536L102.256 25.8802Z" fill="white"/>
<path d="M222.852 19.7647C222.21 18.8565 221.344 18.1691 220.254 17.6978V17.6334C221.109 17.1851 221.778 16.5713 222.259 15.7919C222.739 15.0102 222.978 14.086 222.978 13.0169C222.978 11.865 222.707 10.8489 222.162 9.9729C221.617 9.09695 220.852 8.41873 219.87 7.93822C218.886 7.45771 217.743 7.21631 216.44 7.21631H211.189V9.77978H215.798C217.231 9.77978 218.316 10.0695 219.051 10.6465C219.789 11.2236 220.16 12.0467 220.16 13.1134C220.16 14.3113 219.801 15.2079 219.084 15.8057C218.369 16.4057 217.274 16.7046 215.798 16.7046H211.189V19.1071H215.479C217.444 19.1071 218.854 19.4175 219.709 20.0383C220.564 20.659 220.992 21.6614 220.992 23.0501C220.992 24.4387 220.548 25.4871 219.661 26.1285C218.776 26.77 217.359 27.0895 215.414 27.0895H211.189V29.6553H215.927C218.493 29.6553 220.447 29.0874 221.794 27.9563C223.139 26.8228 223.813 25.1767 223.813 23.0179C223.813 21.758 223.493 20.6728 222.852 19.7647ZM206.786 29.6553H208.632C208.892 29.6553 209.103 29.4438 209.103 29.184V16.7046H206.315V29.184C206.315 29.4438 206.526 29.6553 206.786 29.6553Z" fill="white"/>
<path d="M209.108 18.4271V12.2587C209.108 12.2587 210.501 11.7712 210.501 9.87911C210.501 7.98697 209.108 7.25586 209.108 7.25586V9.81933L207.664 10.6424L206.319 9.84922V7.25586C206.319 7.25586 204.919 8.07893 204.919 9.94118C204.919 11.8034 206.319 12.2587 206.319 12.2587V18.4271H209.108Z" fill="white"/>
<path d="M129.604 20.5462C131.521 20.406 133.061 19.8312 134.22 18.8196C135.567 17.6448 136.239 15.9986 136.239 13.8835C136.239 12.5155 135.935 11.3292 135.326 10.3245C134.717 9.31982 133.845 8.55193 132.714 8.01625C131.581 7.48286 130.213 7.21387 128.61 7.21387H117.648V7.77024H120.444V8.44387H117.648V9.83252H119.522V10.5061H117.648V11.8948H118.89V12.5684H117.648V13.9571H119.522V14.6307H117.648V16.0193H118.89V16.693H117.648V18.077H118.586V18.7506H117.648V20.1646H119.522V20.8382H117.648V22.2268H118.89V22.9005H117.648V24.2891H119.522V24.9627H117.648V26.379H118.586V27.0526H117.648V28.4688H119.522V29.1425H117.648V29.6437H120.469V20.5715H126.463L132.169 29.6437H135.439L129.604 20.5715V20.537V20.5462ZM120.469 18.0172V9.77964H128.387C130.075 9.77964 131.337 10.1268 132.169 10.8211C133.002 11.5154 133.42 12.5362 133.42 13.8835C133.42 15.2307 133.004 16.2814 132.169 16.9757C131.337 17.6701 130.096 18.0172 128.452 18.0172H120.469Z" fill="white"/>
<path d="M27.7982 38.3256C27.7982 37.2427 28.665 36.376 29.7478 36.376C30.8307 36.376 31.6676 37.2427 31.6676 38.3256C31.6676 39.4085 30.7709 40.2453 29.7478 40.2453C28.665 40.2453 27.7982 39.4085 27.7982 38.3256ZM28.3247 42.2271H31.2032V63.8959H28.3247V42.2271Z" fill="white"/>
<path d="M49.9314 42.2266H52.8098V63.8954H50.4878L39.3441 47.7053V63.8954H36.4657V42.2266H38.7878L49.9314 58.3868V42.2266Z" fill="white"/>
<path d="M66.5238 42.2266C69.4643 42.2266 71.9105 43.2795 73.8602 45.3832C75.8098 47.457 76.8007 50.0273 76.8007 53.0598C76.8007 56.0923 75.8098 58.6627 73.8602 60.7686C71.9105 62.8424 69.4643 63.8954 66.5238 63.8954H58.0724V42.2266H66.5238ZM66.5238 61.171C68.7217 61.171 70.5472 60.3962 71.9404 58.8489C73.3337 57.3016 74.0464 55.3819 74.0464 53.0598C74.0464 50.7377 73.3337 48.818 71.9404 47.2707C70.5472 45.7235 68.7217 44.9487 66.5238 44.9487H60.9508V61.1687H66.5238V61.171Z" fill="white"/>
<path d="M80.4861 42.2266H83.3645V56.4969C83.3645 59.5616 85.2521 61.4813 88.6271 61.4813C92.0022 61.4813 93.8897 59.5616 93.8897 56.4969V42.2266H96.7383V56.6211C96.7383 58.9431 95.9957 60.8307 94.4783 62.2239C92.9609 63.6172 91.0113 64.2977 88.6271 64.2977C86.243 64.2977 84.2612 63.6172 82.7461 62.2239C81.2287 60.8307 80.4861 58.9431 80.4861 56.6211V42.2266Z" fill="white"/>
<path d="M100.546 58.9735L103.022 57.5504C103.859 60.1805 105.808 61.4818 108.811 61.4818C111.813 61.4818 113.393 60.1507 113.393 58.139C113.393 57.1182 112.99 56.3434 112.216 55.8169C111.441 55.2904 110.11 54.7639 108.284 54.1753L106.211 53.4948C105.746 53.3086 105.128 53.0304 104.415 52.6901C103.702 52.3177 103.176 51.9475 102.835 51.5751C102.123 50.8003 101.474 49.5312 101.474 47.954C101.474 46.0665 102.125 44.579 103.456 43.4961C104.787 42.3811 106.397 41.8247 108.284 41.8247C111.721 41.8247 114.352 43.7123 115.621 46.5608L113.207 47.954C112.278 45.7262 110.636 44.6112 108.284 44.6112C105.932 44.6112 104.353 45.8504 104.353 47.8299C104.353 48.7886 104.693 49.5013 105.374 49.9979C106.054 50.4922 107.231 51.0187 108.903 51.5452L110.172 51.9475C110.42 52.0395 110.79 52.1637 111.317 52.3821C112.4 52.7844 112.648 52.9384 113.485 53.4029C114.352 53.8673 114.63 54.2075 115.156 54.826C115.931 55.6008 116.239 56.7135 116.239 58.0769C116.239 59.9644 115.559 61.4818 114.165 62.6268C112.772 63.7418 110.977 64.2982 108.749 64.2982C104.693 64.2982 101.691 62.2865 100.546 58.9735Z" fill="white"/>
<path d="M133.358 42.2266V44.951H126.95V63.8954H124.102V44.951H117.724V42.2266H133.358Z" fill="white"/>
<path d="M149.672 63.8954L144.812 55.6003H139.703V63.8954H136.825V42.2266H145.493C147.35 42.2266 148.93 42.8772 150.261 44.2084C151.592 45.5096 152.243 47.0868 152.243 48.9445C152.243 50.3377 151.808 51.6367 150.974 52.7839C150.137 53.9289 149.086 54.7657 147.755 55.2301L152.863 63.8977H149.675L149.672 63.8954ZM139.706 44.9188V52.9977H145.495C146.578 52.9977 147.477 52.5954 148.219 51.8206C148.994 51.0159 149.364 50.0572 149.364 48.9422C149.364 47.8271 148.992 46.8684 148.219 46.0936C147.477 45.3188 146.578 44.9165 145.495 44.9165H139.706V44.9188Z" fill="white"/>
<path d="M155.834 38.3256C155.834 37.2427 156.701 36.376 157.783 36.376C158.866 36.376 159.703 37.2427 159.703 38.3256C159.703 39.4085 158.807 40.2453 157.783 40.2453C156.701 40.2453 155.834 39.4085 155.834 38.3256ZM156.36 42.2271H159.239V63.8959H156.36V42.2271Z" fill="white"/>
<path d="M167.38 61.171H177.44V63.8954H164.501V42.2266H177.286V44.951H167.38V51.6068H176.512V54.299H167.38V61.171Z" fill="white"/>
<path d="M180.319 58.9735L182.795 57.5504C183.632 60.1805 185.582 61.4818 188.584 61.4818C191.587 61.4818 193.166 60.1507 193.166 58.139C193.166 57.1182 192.764 56.3434 191.989 55.8169C191.214 55.2904 189.883 54.7639 188.058 54.1753L185.984 53.4948C185.519 53.3086 184.901 53.0304 184.188 52.6901C183.476 52.3177 182.949 51.9475 182.609 51.5751C181.896 50.8003 181.248 49.5312 181.248 47.954C181.248 46.0665 181.898 44.579 183.23 43.4961C184.561 42.3811 186.17 41.8247 188.058 41.8247C191.495 41.8247 194.125 43.7123 195.394 46.5608L192.98 47.954C192.051 45.7262 190.41 44.6112 188.058 44.6112C185.706 44.6112 184.126 45.8504 184.126 47.8299C184.126 48.7886 184.467 49.5013 185.147 49.9979C185.828 50.4922 187.005 51.0187 188.676 51.5452L189.945 51.9475C190.194 52.0395 190.564 52.1637 191.09 52.3821C192.173 52.7844 192.421 52.9384 193.258 53.4029C194.125 53.8673 194.403 54.2075 194.93 54.826C195.704 55.6008 196.012 56.7135 196.012 58.0769C196.012 59.9644 195.332 61.4818 193.939 62.6268C192.545 63.7418 190.75 64.2982 188.522 64.2982C184.467 64.2982 181.464 62.2865 180.319 58.9735Z" fill="white"/>
</g>
<defs>
<clipPath id="clip0_161_6357">
<rect width="223.813" height="64.2983" fill="white"/>
</clipPath>
</defs>
</svg>
