<svg width="29" height="29" viewBox="0 0 29 29" fill="none" xmlns="http://www.w3.org/2000/svg">
<path d="M8.88636 16.1637C9.43354 16.1637 9.88945 16.1627 10.2604 16.193C10.6402 16.224 10.9974 16.2917 11.3346 16.4635C11.852 16.7271 12.2731 17.1483 12.5367 17.6656C12.7084 18.0027 12.7753 18.3592 12.8063 18.7389C12.8366 19.11 12.8356 19.5662 12.8356 20.1139V22.1617C12.8356 22.7091 12.8366 23.1648 12.8063 23.5357C12.7752 23.9156 12.7085 24.2727 12.5367 24.61C12.2731 25.1273 11.852 25.5485 11.3346 25.8121C10.9975 25.9838 10.6401 26.0506 10.2604 26.0816C9.88945 26.1119 9.43356 26.1109 8.88636 26.1109H6.83851C6.29098 26.1109 5.83455 26.112 5.46351 26.0816C5.084 26.0506 4.72723 25.9837 4.39026 25.8121C3.87297 25.5485 3.45172 25.1273 3.18811 24.61C3.01631 24.2727 2.94864 23.9156 2.91761 23.5357C2.88732 23.1648 2.88831 22.7091 2.88831 22.1617V20.1139C2.88831 19.5662 2.88729 19.11 2.91761 18.7389C2.94863 18.3592 3.01647 18.0027 3.18811 17.6656C3.45172 17.1483 3.87295 16.7271 4.39026 16.4635C4.7273 16.2918 5.08391 16.224 5.46351 16.193C5.83455 16.1627 6.29099 16.1637 6.83851 16.1637H8.88636ZM22.1617 16.1637C22.7091 16.1637 23.1648 16.1627 23.5358 16.193C23.9156 16.224 24.2727 16.2916 24.61 16.4635C25.1274 16.7271 25.5485 17.1482 25.8121 17.6656C25.9837 18.0027 26.0506 18.3592 26.0817 18.7389C26.112 19.11 26.111 19.5662 26.111 20.1139V22.1617C26.111 22.7091 26.112 23.1648 26.0817 23.5357C26.0506 23.9156 25.9839 24.2727 25.8121 24.61C25.5485 25.1274 25.1274 25.5485 24.61 25.8121C24.2728 25.9839 23.9156 26.0506 23.5358 26.0816C23.1648 26.1119 22.7091 26.1109 22.1617 26.1109H20.1139C19.5662 26.1109 19.11 26.112 18.7389 26.0816C18.3593 26.0506 18.0027 25.9837 17.6657 25.8121C17.1483 25.5485 16.7272 25.1273 16.4635 24.61C16.2917 24.2727 16.224 23.9156 16.193 23.5357C16.1627 23.1648 16.1637 22.7091 16.1637 22.1617V20.1139C16.1637 19.5662 16.1627 19.11 16.193 18.7389C16.224 18.3591 16.2918 18.0028 16.4635 17.6656C16.7272 17.1482 17.1482 16.7271 17.6657 16.4635C18.0028 16.2918 18.3592 16.224 18.7389 16.193C19.11 16.1626 19.5662 16.1637 20.1139 16.1637H22.1617ZM8.88636 2.88828C9.43353 2.88828 9.88946 2.88732 10.2604 2.91758C10.6401 2.9486 10.9975 3.0164 11.3346 3.18808C11.8519 3.45167 12.2731 3.87301 12.5367 4.39023C12.7083 4.72719 12.7752 5.08398 12.8063 5.46347C12.8366 5.83453 12.8356 6.29095 12.8356 6.83847V8.88633C12.8356 9.43355 12.8365 9.88941 12.8063 10.2603C12.7752 10.6401 12.7085 10.9974 12.5367 11.3346C12.2731 11.852 11.852 12.2731 11.3346 12.5367C10.9974 12.7085 10.6402 12.7752 10.2604 12.8062C9.88944 12.8365 9.43357 12.8355 8.88636 12.8355H6.83851C6.29099 12.8355 5.83455 12.8366 5.46351 12.8062C5.08401 12.7752 4.72722 12.7083 4.39026 12.5367C3.87304 12.2731 3.4517 11.8518 3.18811 11.3346C3.01643 10.9974 2.94863 10.6401 2.91761 10.2603C2.88735 9.88943 2.88831 9.4335 2.88831 8.88633V6.83847C2.88831 6.29095 2.88729 5.83453 2.91761 5.46347C2.94865 5.08386 3.01645 4.72728 3.18811 4.39023C3.45175 3.87289 3.87293 3.45172 4.39026 3.18808C4.72731 3.01642 5.08389 2.94862 5.46351 2.91758C5.83455 2.88726 6.29099 2.88828 6.83851 2.88828H8.88636ZM22.1617 2.88828C22.7091 2.88828 23.1648 2.88729 23.5358 2.91758C23.9156 2.94861 24.2728 3.01628 24.61 3.18808C25.1273 3.45169 25.5485 3.87294 25.8121 4.39023C25.9837 4.7272 26.0506 5.08396 26.0817 5.46347C26.112 5.83453 26.111 6.29095 26.111 6.83847V8.88633C26.111 9.43353 26.1119 9.88941 26.0817 10.2603C26.0506 10.6401 25.9838 10.9974 25.8121 11.3346C25.5485 11.852 25.1274 12.2731 24.61 12.5367C24.2728 12.7085 23.9156 12.7752 23.5358 12.8062C23.1648 12.8365 22.7091 12.8355 22.1617 12.8355H20.1139C19.5662 12.8355 19.11 12.8366 18.7389 12.8062C18.3593 12.7752 18.0027 12.7083 17.6657 12.5367C17.1483 12.2731 16.7271 11.8519 16.4635 11.3346C16.2918 10.9974 16.224 10.6401 16.193 10.2603C16.1627 9.88942 16.1637 9.43351 16.1637 8.88633V6.83847C16.1637 6.29095 16.1627 5.83453 16.193 5.46347C16.224 5.08387 16.2918 4.72727 16.4635 4.39023C16.7272 3.87292 17.1483 3.45169 17.6657 3.18808C18.0027 3.01644 18.3592 2.9486 18.7389 2.91758C19.11 2.88726 19.5663 2.88828 20.1139 2.88828H22.1617Z" fill="white"/>
</svg>
