<svg width="33" height="33" viewBox="0 0 33 33" fill="none" xmlns="http://www.w3.org/2000/svg">
<rect width="33" height="33" rx="16.5" fill="#A8A8A8"/>
<g clip-path="url(#clip0_1_680)">
<path d="M5.19727 16.5556C5.19727 15.5107 5.56487 14.6337 6.30009 13.9264C7.02532 13.2112 7.96232 12.8516 9.11309 12.8516C10.2619 12.8516 11.1989 13.2092 11.9261 13.9264C12.6613 14.6417 13.0289 15.5187 13.0289 16.5556C13.0289 17.6105 12.6613 18.4955 11.9261 19.2128C11.1909 19.92 10.2539 20.2716 9.11309 20.2716C7.97231 20.2716 7.03531 19.918 6.30009 19.2128C5.56487 18.4955 5.19727 17.6105 5.19727 16.5556ZM7.16117 16.5556C7.16117 17.121 7.34497 17.5925 7.71258 17.9681C8.08019 18.3457 8.54569 18.5335 9.11109 18.5335C9.67649 18.5335 10.142 18.3457 10.5096 17.9681C10.8772 17.5825 11.061 17.111 11.061 16.5556C11.061 15.9902 10.8772 15.5247 10.5096 15.1571C10.142 14.7795 9.67649 14.5917 9.11109 14.5917C8.54569 14.5917 8.08019 14.7795 7.71258 15.1571C7.34497 15.5247 7.16117 15.9902 7.16117 16.5556Z" fill="white"/>
<path d="M24.9802 20.2716C23.8774 20.2716 22.9504 19.932 22.1972 19.2547C21.444 18.5755 21.0664 17.6764 21.0664 16.5556C21.0664 15.5107 21.406 14.6337 22.0833 13.9264C22.7626 13.2112 23.6477 12.8516 24.7405 12.8516C25.7574 12.8516 26.5725 13.2152 27.1859 13.9404C27.7972 14.6656 28.1049 15.5467 28.1049 16.5836V17.107H23.0463C23.1502 17.5785 23.4119 17.9401 23.8315 18.1959C24.251 18.4496 24.7764 18.5775 25.4078 18.5775C26.1889 18.5775 26.9441 18.3697 27.6694 17.9561V19.5524C27.034 20.0319 26.139 20.2716 24.9802 20.2716ZM23.0443 15.8344H26.139C26.119 15.4288 25.9772 15.0932 25.7075 14.8235C25.4397 14.5557 25.0881 14.4199 24.6546 14.4199C24.2111 14.4199 23.8434 14.5498 23.5518 14.8095C23.2621 15.0692 23.0922 15.4108 23.0443 15.8344Z" fill="white"/>
<path d="M19.8235 13.6227C19.3719 13.1092 18.7406 12.8535 17.9295 12.8535C16.9865 12.8535 16.2013 13.1971 15.57 13.8844L15.566 12.9634L13.5781 12.9734V20.0878H16.3252V20.0718H16.3132V16.8692L15.0526 17.7023V15.6945L16.523 14.6656H18.2871V20.0878H20.5047V15.7644C20.5007 14.8494 20.275 14.1361 19.8235 13.6227Z" fill="white"/>
</g>
<defs>
<clipPath id="clip0_1_680">
<rect width="26" height="8" fill="white" transform="translate(4 12)"/>
</clipPath>
</defs>
</svg>
