<svg width="21" height="22" viewBox="0 0 21 22" fill="none" xmlns="http://www.w3.org/2000/svg">
<path d="M18.375 14.436V17.53C18.375 17.9894 18.0198 18.3706 17.5617 18.4029C17.179 18.43 16.8668 18.4435 16.625 18.4435C8.89297 18.4435 2.625 12.1755 2.625 4.44345C2.625 4.2017 2.63852 3.88946 2.66556 3.50676C2.69795 3.0486 3.07907 2.69345 3.53838 2.69345H6.63259C6.85718 2.69345 7.04529 2.86357 7.06784 3.08703C7.08809 3.28764 7.10691 3.4487 7.12431 3.57022C7.30131 4.80633 7.66284 5.98289 8.18011 7.0711C8.26314 7.24577 8.209 7.45484 8.05162 7.56725L6.16311 8.91628C7.31283 11.6019 9.46654 13.7556 12.1522 14.9054L13.4987 13.0201C13.6125 12.8609 13.8241 12.8061 14.0009 12.89C15.089 13.4069 16.2655 13.768 17.5014 13.9446C17.6222 13.9619 17.7822 13.9805 17.9814 14.0006C18.2049 14.0232 18.375 14.2113 18.375 14.436Z" fill="white"/>
</svg>
