<svg width="19" height="19" viewBox="0 0 19 19" fill="none" xmlns="http://www.w3.org/2000/svg">
<path d="M4.02869 0.833186C4.60682 0.833183 5.09549 0.821694 5.52479 0.983577L5.68787 1.05194C6.06158 1.22628 6.3835 1.49735 6.61952 1.83807L6.71034 1.98358C6.90798 2.33537 7.00553 2.76202 7.1283 3.25311L7.22498 3.6408C7.44406 4.51712 7.59689 5.09865 7.57459 5.68182C7.55798 6.11447 7.46968 6.54147 7.31385 6.94451L7.24256 7.11541C7.06559 7.51567 6.80066 7.87196 6.43397 8.31658L6.0326 8.79608L5.70057 9.19061L5.64784 9.24725C5.37501 9.51152 4.94093 9.53211 4.64393 9.2824C4.32715 9.01578 4.28668 8.54268 4.55311 8.22576L4.88514 7.83026L5.29041 7.3449C5.62735 6.93489 5.77459 6.72812 5.87147 6.50897L5.9535 6.29608C6.02559 6.07974 6.06675 5.8538 6.07557 5.62518C6.08782 5.30591 6.01063 4.96699 5.76991 4.00408L5.67323 3.61737C5.54517 3.10514 5.48602 2.89528 5.43592 2.78143L5.38612 2.69158C5.31397 2.58757 5.21913 2.50215 5.10975 2.44061L4.99549 2.3869C4.88458 2.34509 4.73198 2.33319 4.02869 2.33319C3.62267 2.33319 3.36489 2.33358 3.16639 2.35076C2.98157 2.36678 2.90139 2.3941 2.84901 2.4201C2.6819 2.50312 2.49496 2.71389 2.43299 2.88983C2.38085 3.03812 2.38227 3.18264 2.47401 3.93084C2.75036 6.18459 3.42769 8.19392 4.4408 9.91033L4.64979 10.2531C5.7182 11.9463 7.13088 13.348 8.83338 14.4045L9.16932 14.6056C10.8683 15.593 12.8499 16.2544 15.0687 16.5265C15.8167 16.6183 15.9615 16.6186 16.1097 16.5666L16.1771 16.5373C16.3365 16.4578 16.5068 16.2968 16.5795 16.1506L16.6176 16.0422C16.6296 15.9918 16.6407 15.9236 16.6488 15.8283C16.6661 15.6252 16.6664 15.3612 16.6664 14.9474C16.6664 14.4338 16.66 14.223 16.639 14.1027L16.6127 14.0041C16.5678 13.8854 16.4971 13.7789 16.4056 13.6926L16.308 13.6135C16.2349 13.5628 16.1348 13.5226 15.8012 13.4338L15.3832 13.3273L14.8217 13.1867C14.0357 12.9902 13.6959 12.9103 13.4222 12.8976L13.308 12.8957C13.0931 12.9003 12.8797 12.9336 12.6742 12.9943L12.4711 13.0646C12.192 13.175 11.9291 13.3641 11.1879 13.9191L10.7416 14.2531L10.6771 14.2961C10.3515 14.4917 9.92449 14.4133 9.69178 14.1027C9.44362 13.7712 9.51081 13.3012 9.84217 13.0529L10.2885 12.7189C10.9636 12.2134 11.4098 11.8716 11.9193 11.6701L12.0834 11.6096C12.467 11.4773 12.8694 11.4054 13.2758 11.3967L13.4818 11.3986C13.9641 11.4208 14.4697 11.5526 15.1859 11.7316L15.7465 11.8713L16.1517 11.9738C16.5399 12.0753 16.8787 12.1844 17.1615 12.3801L17.3041 12.4865C17.6241 12.7462 17.8697 13.0873 18.016 13.4748L18.0697 13.6379C18.176 14.0247 18.1664 14.4533 18.1664 14.9474C18.1664 15.3362 18.1669 15.6748 18.143 15.9562C18.1242 16.1766 18.0887 16.3926 18.0131 16.6056L17.9232 16.8176C17.6987 17.2699 17.2775 17.6751 16.8109 17.8976L16.6088 17.9816C16.0569 18.1759 15.5126 18.0917 14.8861 18.0148C12.4817 17.72 10.3028 17.0003 8.41541 15.9035L8.04237 15.6789C6.14628 14.5023 4.57053 12.9386 3.38123 11.0539L3.14881 10.673C2.02268 8.76514 1.28419 6.55549 0.98475 4.11346C0.907952 3.48719 0.824745 2.94349 1.01893 2.39178L1.10291 2.18866C1.32549 1.72236 1.72989 1.30083 2.18202 1.07635C2.46198 0.937409 2.74512 0.8819 3.03651 0.856624C3.31451 0.832554 3.64808 0.833186 4.02869 0.833186ZM16.1517 1.79315C16.4463 1.55284 16.881 1.5703 17.1556 1.84491C17.43 2.11952 17.4476 2.55432 17.2074 2.84881L17.1556 2.90545L13.6859 6.37518H15.8334C16.2475 6.37525 16.5834 6.71101 16.5834 7.12518C16.5832 7.53917 16.2474 7.87511 15.8334 7.87518H11.8754C11.4613 7.87518 11.1256 7.53921 11.1254 7.12518V3.16717C11.1254 2.75296 11.4612 2.41717 11.8754 2.41717C12.2895 2.41724 12.6254 2.753 12.6254 3.16717V5.31463L16.0951 1.84491L16.1517 1.79315Z" fill="#22272F"/>
</svg>
