<svg width="19" height="19" viewBox="0 0 19 19" fill="none" xmlns="http://www.w3.org/2000/svg">
<path d="M4.0292 0.833067C4.60722 0.833058 5.09606 0.821552 5.5253 0.983457C5.96823 1.15065 6.35044 1.44875 6.62002 1.83795C6.88121 2.21517 6.9886 2.69211 7.12881 3.25299L7.22549 3.64068C7.44456 4.51694 7.59737 5.09857 7.5751 5.6817C7.55613 6.17594 7.44298 6.66289 7.24307 7.11529C7.0071 7.64907 6.61465 8.10482 6.03311 8.79596L5.70108 9.19049L5.64834 9.24713C5.37558 9.51147 4.94149 9.53187 4.64444 9.28229C4.32753 9.01564 4.28704 8.54259 4.55362 8.22564L4.88565 7.83014C5.52434 7.07106 5.74285 6.80102 5.87198 6.50885C5.9952 6.22991 6.06433 5.92977 6.07608 5.62506C6.08831 5.30583 6.01111 4.96674 5.77041 4.00397L5.67373 3.61725C5.50311 2.93474 5.4541 2.78893 5.38663 2.69147C5.29041 2.55273 5.15394 2.44645 4.996 2.38678C4.8851 2.34493 4.73247 2.33307 4.0292 2.33307C3.62334 2.33307 3.36537 2.33349 3.1669 2.35064C2.98237 2.36662 2.90193 2.39403 2.84952 2.41998C2.68244 2.5029 2.49558 2.71375 2.4335 2.88971C2.38132 3.03804 2.38276 3.18238 2.47452 3.93072C2.75087 6.1845 3.42818 8.19378 4.44131 9.91022C5.53182 11.7576 7.01782 13.2775 8.83389 14.4044C10.6056 15.5036 12.7027 16.2362 15.0692 16.5264C15.8172 16.6181 15.962 16.6186 16.1103 16.5665C16.2862 16.5043 16.4971 16.3175 16.58 16.1504C16.6052 16.0996 16.6331 16.0183 16.6493 15.8282C16.6666 15.6251 16.6669 15.3611 16.6669 14.9473C16.6669 14.262 16.6552 14.1154 16.6132 14.004C16.5535 13.846 16.4473 13.7096 16.3085 13.6133C16.2111 13.5459 16.0657 13.4977 15.3837 13.3272L14.8222 13.1866C13.9243 12.9621 13.6084 12.8893 13.3085 12.8956C13.0219 12.9017 12.7382 12.9592 12.4716 13.0645C12.1925 13.1748 11.9295 13.364 11.1884 13.919L10.7421 14.253L10.6776 14.296C10.352 14.4917 9.92506 14.4131 9.69229 14.1026C9.44404 13.7711 9.51116 13.3011 9.84268 13.0528L10.289 12.7188C10.964 12.2134 11.4103 11.8715 11.9198 11.67C12.3519 11.4992 12.8118 11.4065 13.2763 11.3965C13.8242 11.3849 14.368 11.5269 15.1864 11.7315L15.747 11.8712C16.3077 12.0113 16.7849 12.1189 17.162 12.3799C17.5511 12.6495 17.8493 13.0318 18.0165 13.4747C18.1783 13.9036 18.1669 14.3828 18.1669 14.9473C18.1669 15.3361 18.1674 15.6747 18.1435 15.9561C18.1184 16.2499 18.0634 16.5359 17.9237 16.8174C17.6672 17.3343 17.1535 17.7897 16.6093 17.9815C16.0575 18.1759 15.5131 18.0915 14.8866 18.0147C12.3221 17.7002 10.0143 16.9019 8.04288 15.6788C6.02048 14.4239 4.36269 12.7284 3.14932 10.6729C2.02317 8.765 1.2847 6.55541 0.985258 4.11334C0.908457 3.48706 0.825206 2.94339 1.01944 2.39166C1.21123 1.84737 1.66561 1.3328 2.18252 1.07623C2.46243 0.937391 2.74569 0.881761 3.03702 0.856504C3.31498 0.832466 3.64869 0.833067 4.0292 0.833067ZM16.0946 1.84479C16.3875 1.5519 16.8623 1.55191 17.1552 1.84479C17.4481 2.13768 17.4481 2.61244 17.1552 2.90533L13.6855 6.37506H15.8329C16.2471 6.37506 16.5829 6.71085 16.5829 7.12506C16.5828 7.53918 16.2471 7.87506 15.8329 7.87506H11.8749C11.4609 7.87492 11.125 7.53909 11.1249 7.12506V3.16705C11.1249 2.75292 11.4608 2.41719 11.8749 2.41705C12.2891 2.41705 12.6249 2.75284 12.6249 3.16705V5.31451L16.0946 1.84479Z" fill="white"/>
</svg>
